%TF.GenerationSoftware,KiCad,Pcbnew,(5.1.10)-1*%
%TF.CreationDate,2021-07-14T15:21:13+08:00*%
%TF.ProjectId,usb-ttl,7573622d-7474-46c2-9e6b-696361645f70,rev?*%
%TF.SameCoordinates,Original*%
%TF.FileFunction,Copper,L1,Top*%
%TF.FilePolarity,Positive*%
%FSLAX46Y46*%
G04 Gerber Fmt 4.6, Leading zero omitted, Abs format (unit mm)*
G04 Created by KiCad (PCBNEW (5.1.10)-1) date 2021-07-14 15:21:13*
%MOMM*%
%LPD*%
G01*
G04 APERTURE LIST*
%TA.AperFunction,ComponentPad*%
%ADD10O,1.700000X1.700000*%
%TD*%
%TA.AperFunction,ComponentPad*%
%ADD11R,1.700000X1.700000*%
%TD*%
%TA.AperFunction,ComponentPad*%
%ADD12O,3.500000X1.900000*%
%TD*%
%TA.AperFunction,SMDPad,CuDef*%
%ADD13R,2.500000X1.100000*%
%TD*%
%TA.AperFunction,ViaPad*%
%ADD14C,0.700000*%
%TD*%
%TA.AperFunction,Conductor*%
%ADD15C,1.000000*%
%TD*%
%TA.AperFunction,Conductor*%
%ADD16C,0.500000*%
%TD*%
%TA.AperFunction,Conductor*%
%ADD17C,0.280000*%
%TD*%
%TA.AperFunction,Conductor*%
%ADD18C,0.254000*%
%TD*%
%TA.AperFunction,Conductor*%
%ADD19C,0.100000*%
%TD*%
G04 APERTURE END LIST*
%TO.P,U1,8*%
%TO.N,Net-(C2-Pad1)*%
%TA.AperFunction,SMDPad,CuDef*%
G36*
G01*
X115675000Y-119350000D02*
X115675000Y-119050000D01*
G75*
G02*
X115825000Y-118900000I150000J0D01*
G01*
X117475000Y-118900000D01*
G75*
G02*
X117625000Y-119050000I0J-150000D01*
G01*
X117625000Y-119350000D01*
G75*
G02*
X117475000Y-119500000I-150000J0D01*
G01*
X115825000Y-119500000D01*
G75*
G02*
X115675000Y-119350000I0J150000D01*
G01*
G37*
%TD.AperFunction*%
%TO.P,U1,7*%
%TO.N,/RXD*%
%TA.AperFunction,SMDPad,CuDef*%
G36*
G01*
X115675000Y-120620000D02*
X115675000Y-120320000D01*
G75*
G02*
X115825000Y-120170000I150000J0D01*
G01*
X117475000Y-120170000D01*
G75*
G02*
X117625000Y-120320000I0J-150000D01*
G01*
X117625000Y-120620000D01*
G75*
G02*
X117475000Y-120770000I-150000J0D01*
G01*
X115825000Y-120770000D01*
G75*
G02*
X115675000Y-120620000I0J150000D01*
G01*
G37*
%TD.AperFunction*%
%TO.P,U1,6*%
%TO.N,/TXD*%
%TA.AperFunction,SMDPad,CuDef*%
G36*
G01*
X115675000Y-121890000D02*
X115675000Y-121590000D01*
G75*
G02*
X115825000Y-121440000I150000J0D01*
G01*
X117475000Y-121440000D01*
G75*
G02*
X117625000Y-121590000I0J-150000D01*
G01*
X117625000Y-121890000D01*
G75*
G02*
X117475000Y-122040000I-150000J0D01*
G01*
X115825000Y-122040000D01*
G75*
G02*
X115675000Y-121890000I0J150000D01*
G01*
G37*
%TD.AperFunction*%
%TO.P,U1,5*%
%TO.N,+5V*%
%TA.AperFunction,SMDPad,CuDef*%
G36*
G01*
X115675000Y-123160000D02*
X115675000Y-122860000D01*
G75*
G02*
X115825000Y-122710000I150000J0D01*
G01*
X117475000Y-122710000D01*
G75*
G02*
X117625000Y-122860000I0J-150000D01*
G01*
X117625000Y-123160000D01*
G75*
G02*
X117475000Y-123310000I-150000J0D01*
G01*
X115825000Y-123310000D01*
G75*
G02*
X115675000Y-123160000I0J150000D01*
G01*
G37*
%TD.AperFunction*%
%TO.P,U1,4*%
%TO.N,/RTS*%
%TA.AperFunction,SMDPad,CuDef*%
G36*
G01*
X110725000Y-123160000D02*
X110725000Y-122860000D01*
G75*
G02*
X110875000Y-122710000I150000J0D01*
G01*
X112525000Y-122710000D01*
G75*
G02*
X112675000Y-122860000I0J-150000D01*
G01*
X112675000Y-123160000D01*
G75*
G02*
X112525000Y-123310000I-150000J0D01*
G01*
X110875000Y-123310000D01*
G75*
G02*
X110725000Y-123160000I0J150000D01*
G01*
G37*
%TD.AperFunction*%
%TO.P,U1,3*%
%TO.N,GND*%
%TA.AperFunction,SMDPad,CuDef*%
G36*
G01*
X110725000Y-121890000D02*
X110725000Y-121590000D01*
G75*
G02*
X110875000Y-121440000I150000J0D01*
G01*
X112525000Y-121440000D01*
G75*
G02*
X112675000Y-121590000I0J-150000D01*
G01*
X112675000Y-121890000D01*
G75*
G02*
X112525000Y-122040000I-150000J0D01*
G01*
X110875000Y-122040000D01*
G75*
G02*
X110725000Y-121890000I0J150000D01*
G01*
G37*
%TD.AperFunction*%
%TO.P,U1,2*%
%TO.N,/D-*%
%TA.AperFunction,SMDPad,CuDef*%
G36*
G01*
X110725000Y-120620000D02*
X110725000Y-120320000D01*
G75*
G02*
X110875000Y-120170000I150000J0D01*
G01*
X112525000Y-120170000D01*
G75*
G02*
X112675000Y-120320000I0J-150000D01*
G01*
X112675000Y-120620000D01*
G75*
G02*
X112525000Y-120770000I-150000J0D01*
G01*
X110875000Y-120770000D01*
G75*
G02*
X110725000Y-120620000I0J150000D01*
G01*
G37*
%TD.AperFunction*%
%TO.P,U1,1*%
%TO.N,/D+*%
%TA.AperFunction,SMDPad,CuDef*%
G36*
G01*
X110725000Y-119350000D02*
X110725000Y-119050000D01*
G75*
G02*
X110875000Y-118900000I150000J0D01*
G01*
X112525000Y-118900000D01*
G75*
G02*
X112675000Y-119050000I0J-150000D01*
G01*
X112675000Y-119350000D01*
G75*
G02*
X112525000Y-119500000I-150000J0D01*
G01*
X110875000Y-119500000D01*
G75*
G02*
X110725000Y-119350000I0J150000D01*
G01*
G37*
%TD.AperFunction*%
%TD*%
D10*
%TO.P,J2,5*%
%TO.N,+5V*%
X124200000Y-126080000D03*
%TO.P,J2,4*%
%TO.N,/TXD*%
X124200000Y-123540000D03*
%TO.P,J2,3*%
%TO.N,/RXD*%
X124200000Y-121000000D03*
%TO.P,J2,2*%
%TO.N,GND*%
X124200000Y-118460000D03*
D11*
%TO.P,J2,1*%
%TO.N,/RTS*%
X124200000Y-115920000D03*
%TD*%
%TO.P,R2,2*%
%TO.N,Net-(D2-Pad2)*%
%TA.AperFunction,SMDPad,CuDef*%
G36*
G01*
X119825000Y-116800000D02*
X120375000Y-116800000D01*
G75*
G02*
X120575000Y-117000000I0J-200000D01*
G01*
X120575000Y-117400000D01*
G75*
G02*
X120375000Y-117600000I-200000J0D01*
G01*
X119825000Y-117600000D01*
G75*
G02*
X119625000Y-117400000I0J200000D01*
G01*
X119625000Y-117000000D01*
G75*
G02*
X119825000Y-116800000I200000J0D01*
G01*
G37*
%TD.AperFunction*%
%TO.P,R2,1*%
%TO.N,+5V*%
%TA.AperFunction,SMDPad,CuDef*%
G36*
G01*
X119825000Y-115150000D02*
X120375000Y-115150000D01*
G75*
G02*
X120575000Y-115350000I0J-200000D01*
G01*
X120575000Y-115750000D01*
G75*
G02*
X120375000Y-115950000I-200000J0D01*
G01*
X119825000Y-115950000D01*
G75*
G02*
X119625000Y-115750000I0J200000D01*
G01*
X119625000Y-115350000D01*
G75*
G02*
X119825000Y-115150000I200000J0D01*
G01*
G37*
%TD.AperFunction*%
%TD*%
%TO.P,R1,2*%
%TO.N,Net-(D1-Pad2)*%
%TA.AperFunction,SMDPad,CuDef*%
G36*
G01*
X120375000Y-124975000D02*
X119825000Y-124975000D01*
G75*
G02*
X119625000Y-124775000I0J200000D01*
G01*
X119625000Y-124375000D01*
G75*
G02*
X119825000Y-124175000I200000J0D01*
G01*
X120375000Y-124175000D01*
G75*
G02*
X120575000Y-124375000I0J-200000D01*
G01*
X120575000Y-124775000D01*
G75*
G02*
X120375000Y-124975000I-200000J0D01*
G01*
G37*
%TD.AperFunction*%
%TO.P,R1,1*%
%TO.N,+5V*%
%TA.AperFunction,SMDPad,CuDef*%
G36*
G01*
X120375000Y-126625000D02*
X119825000Y-126625000D01*
G75*
G02*
X119625000Y-126425000I0J200000D01*
G01*
X119625000Y-126025000D01*
G75*
G02*
X119825000Y-125825000I200000J0D01*
G01*
X120375000Y-125825000D01*
G75*
G02*
X120575000Y-126025000I0J-200000D01*
G01*
X120575000Y-126425000D01*
G75*
G02*
X120375000Y-126625000I-200000J0D01*
G01*
G37*
%TD.AperFunction*%
%TD*%
D12*
%TO.P,J1,5*%
%TO.N,GND*%
X103700000Y-115300000D03*
X103700000Y-126700000D03*
D13*
%TO.P,J1,4*%
X106450000Y-117500000D03*
%TO.P,J1,1*%
%TO.N,+5V*%
X106450000Y-124500000D03*
%TO.P,J1,3*%
%TO.N,/D+*%
X106450000Y-120000000D03*
%TO.P,J1,2*%
%TO.N,/D-*%
X106450000Y-122000000D03*
%TD*%
%TO.P,D2,2*%
%TO.N,Net-(D2-Pad2)*%
%TA.AperFunction,SMDPad,CuDef*%
G36*
G01*
X120356250Y-119062500D02*
X119843750Y-119062500D01*
G75*
G02*
X119625000Y-118843750I0J218750D01*
G01*
X119625000Y-118406250D01*
G75*
G02*
X119843750Y-118187500I218750J0D01*
G01*
X120356250Y-118187500D01*
G75*
G02*
X120575000Y-118406250I0J-218750D01*
G01*
X120575000Y-118843750D01*
G75*
G02*
X120356250Y-119062500I-218750J0D01*
G01*
G37*
%TD.AperFunction*%
%TO.P,D2,1*%
%TO.N,/RXD*%
%TA.AperFunction,SMDPad,CuDef*%
G36*
G01*
X120356250Y-120637500D02*
X119843750Y-120637500D01*
G75*
G02*
X119625000Y-120418750I0J218750D01*
G01*
X119625000Y-119981250D01*
G75*
G02*
X119843750Y-119762500I218750J0D01*
G01*
X120356250Y-119762500D01*
G75*
G02*
X120575000Y-119981250I0J-218750D01*
G01*
X120575000Y-120418750D01*
G75*
G02*
X120356250Y-120637500I-218750J0D01*
G01*
G37*
%TD.AperFunction*%
%TD*%
%TO.P,D1,2*%
%TO.N,Net-(D1-Pad2)*%
%TA.AperFunction,SMDPad,CuDef*%
G36*
G01*
X119843750Y-122762500D02*
X120356250Y-122762500D01*
G75*
G02*
X120575000Y-122981250I0J-218750D01*
G01*
X120575000Y-123418750D01*
G75*
G02*
X120356250Y-123637500I-218750J0D01*
G01*
X119843750Y-123637500D01*
G75*
G02*
X119625000Y-123418750I0J218750D01*
G01*
X119625000Y-122981250D01*
G75*
G02*
X119843750Y-122762500I218750J0D01*
G01*
G37*
%TD.AperFunction*%
%TO.P,D1,1*%
%TO.N,/TXD*%
%TA.AperFunction,SMDPad,CuDef*%
G36*
G01*
X119843750Y-121187500D02*
X120356250Y-121187500D01*
G75*
G02*
X120575000Y-121406250I0J-218750D01*
G01*
X120575000Y-121843750D01*
G75*
G02*
X120356250Y-122062500I-218750J0D01*
G01*
X119843750Y-122062500D01*
G75*
G02*
X119625000Y-121843750I0J218750D01*
G01*
X119625000Y-121406250D01*
G75*
G02*
X119843750Y-121187500I218750J0D01*
G01*
G37*
%TD.AperFunction*%
%TD*%
%TO.P,C2,2*%
%TO.N,GND*%
%TA.AperFunction,SMDPad,CuDef*%
G36*
G01*
X116100000Y-117450000D02*
X116100000Y-117950000D01*
G75*
G02*
X115875000Y-118175000I-225000J0D01*
G01*
X115425000Y-118175000D01*
G75*
G02*
X115200000Y-117950000I0J225000D01*
G01*
X115200000Y-117450000D01*
G75*
G02*
X115425000Y-117225000I225000J0D01*
G01*
X115875000Y-117225000D01*
G75*
G02*
X116100000Y-117450000I0J-225000D01*
G01*
G37*
%TD.AperFunction*%
%TO.P,C2,1*%
%TO.N,Net-(C2-Pad1)*%
%TA.AperFunction,SMDPad,CuDef*%
G36*
G01*
X117650000Y-117450000D02*
X117650000Y-117950000D01*
G75*
G02*
X117425000Y-118175000I-225000J0D01*
G01*
X116975000Y-118175000D01*
G75*
G02*
X116750000Y-117950000I0J225000D01*
G01*
X116750000Y-117450000D01*
G75*
G02*
X116975000Y-117225000I225000J0D01*
G01*
X117425000Y-117225000D01*
G75*
G02*
X117650000Y-117450000I0J-225000D01*
G01*
G37*
%TD.AperFunction*%
%TD*%
%TO.P,C1,2*%
%TO.N,GND*%
%TA.AperFunction,SMDPad,CuDef*%
G36*
G01*
X116050000Y-124350000D02*
X116050000Y-124850000D01*
G75*
G02*
X115825000Y-125075000I-225000J0D01*
G01*
X115375000Y-125075000D01*
G75*
G02*
X115150000Y-124850000I0J225000D01*
G01*
X115150000Y-124350000D01*
G75*
G02*
X115375000Y-124125000I225000J0D01*
G01*
X115825000Y-124125000D01*
G75*
G02*
X116050000Y-124350000I0J-225000D01*
G01*
G37*
%TD.AperFunction*%
%TO.P,C1,1*%
%TO.N,+5V*%
%TA.AperFunction,SMDPad,CuDef*%
G36*
G01*
X117600000Y-124350000D02*
X117600000Y-124850000D01*
G75*
G02*
X117375000Y-125075000I-225000J0D01*
G01*
X116925000Y-125075000D01*
G75*
G02*
X116700000Y-124850000I0J225000D01*
G01*
X116700000Y-124350000D01*
G75*
G02*
X116925000Y-124125000I225000J0D01*
G01*
X117375000Y-124125000D01*
G75*
G02*
X117600000Y-124350000I0J-225000D01*
G01*
G37*
%TD.AperFunction*%
%TD*%
D14*
%TO.N,+5V*%
X115000000Y-122150000D03*
X118700000Y-115600000D03*
%TO.N,/RTS*%
X113500000Y-122900000D03*
X122600000Y-116000000D03*
%TD*%
D15*
%TO.N,+5V*%
X123880000Y-126400000D02*
X124200000Y-126080000D01*
D16*
X116650000Y-124100000D02*
X117150000Y-124600000D01*
X116650000Y-123010000D02*
X116650000Y-124100000D01*
D15*
X119600010Y-125725010D02*
X120100000Y-126225000D01*
X106450000Y-124500000D02*
X107675010Y-125725010D01*
X124055000Y-126225000D02*
X124200000Y-126080000D01*
X120100000Y-126225000D02*
X124055000Y-126225000D01*
X117150000Y-125550000D02*
X117325010Y-125725010D01*
X117150000Y-124600000D02*
X117150000Y-125550000D01*
X117325010Y-125725010D02*
X119600010Y-125725010D01*
X107675010Y-125725010D02*
X117325010Y-125725010D01*
D16*
X115860000Y-123010000D02*
X115000000Y-122150000D01*
X116650000Y-123010000D02*
X115860000Y-123010000D01*
X120050000Y-115600000D02*
X120100000Y-115550000D01*
X118700000Y-115600000D02*
X120050000Y-115600000D01*
%TO.N,Net-(C2-Pad1)*%
X116650000Y-118250000D02*
X117200000Y-117700000D01*
X116650000Y-119200000D02*
X116650000Y-118250000D01*
%TO.N,Net-(D1-Pad2)*%
X120100000Y-123200000D02*
X120100000Y-124575000D01*
%TO.N,/TXD*%
X123935000Y-123275000D02*
X124200000Y-123540000D01*
X119985000Y-121740000D02*
X120100000Y-121625000D01*
X116650000Y-121740000D02*
X119985000Y-121740000D01*
X122285000Y-121625000D02*
X124200000Y-123540000D01*
X120100000Y-121625000D02*
X122285000Y-121625000D01*
%TO.N,Net-(D2-Pad2)*%
X120100000Y-117200000D02*
X120100000Y-118625000D01*
%TO.N,/RXD*%
X119830000Y-120470000D02*
X120100000Y-120200000D01*
X116650000Y-120470000D02*
X119830000Y-120470000D01*
X123400000Y-120200000D02*
X124200000Y-121000000D01*
X120100000Y-120200000D02*
X123400000Y-120200000D01*
D17*
%TO.N,/D+*%
X109109001Y-120784000D02*
X108325001Y-120000000D01*
X110116000Y-120784000D02*
X109109001Y-120784000D01*
X110434990Y-120465010D02*
X110116000Y-120784000D01*
X110434990Y-120137740D02*
X110434990Y-120465010D01*
X110692740Y-119879990D02*
X110434990Y-120137740D01*
X108325001Y-120000000D02*
X106450000Y-120000000D01*
X111020010Y-119879990D02*
X110692740Y-119879990D01*
X111700000Y-119200000D02*
X111020010Y-119879990D01*
%TO.N,/D-*%
X109109001Y-121216000D02*
X108325001Y-122000000D01*
X111040941Y-120470000D02*
X110294941Y-121216000D01*
X111700000Y-120470000D02*
X111040941Y-120470000D01*
X110294941Y-121216000D02*
X109109001Y-121216000D01*
X108325001Y-122000000D02*
X106450000Y-122000000D01*
D16*
%TO.N,/RTS*%
X113390000Y-123010000D02*
X113500000Y-122900000D01*
X111700000Y-123010000D02*
X113390000Y-123010000D01*
X124120000Y-116000000D02*
X124200000Y-115920000D01*
X122600000Y-116000000D02*
X124120000Y-116000000D01*
%TD*%
D18*
%TO.N,GND*%
X125216870Y-113383130D02*
X125298001Y-113481988D01*
X125298001Y-114946362D01*
X125281431Y-114915363D01*
X125246816Y-114873184D01*
X125204637Y-114838569D01*
X125156516Y-114812847D01*
X125104301Y-114797008D01*
X125050000Y-114791660D01*
X123350000Y-114791660D01*
X123295699Y-114797008D01*
X123243484Y-114812847D01*
X123195363Y-114838569D01*
X123153184Y-114873184D01*
X123118569Y-114915363D01*
X123092847Y-114963484D01*
X123077008Y-115015699D01*
X123071660Y-115070000D01*
X123071660Y-115473000D01*
X122939859Y-115473000D01*
X122896996Y-115444360D01*
X122782889Y-115397095D01*
X122661754Y-115373000D01*
X122538246Y-115373000D01*
X122417111Y-115397095D01*
X122303004Y-115444360D01*
X122200311Y-115512977D01*
X122112977Y-115600311D01*
X122044360Y-115703004D01*
X121997095Y-115817111D01*
X121973000Y-115938246D01*
X121973000Y-116061754D01*
X121997095Y-116182889D01*
X122044360Y-116296996D01*
X122112977Y-116399689D01*
X122200311Y-116487023D01*
X122303004Y-116555640D01*
X122417111Y-116602905D01*
X122538246Y-116627000D01*
X122661754Y-116627000D01*
X122782889Y-116602905D01*
X122896996Y-116555640D01*
X122939859Y-116527000D01*
X123071660Y-116527000D01*
X123071660Y-116770000D01*
X123077008Y-116824301D01*
X123092847Y-116876516D01*
X123118569Y-116924637D01*
X123153184Y-116966816D01*
X123195363Y-117001431D01*
X123243484Y-117027153D01*
X123295699Y-117042992D01*
X123350000Y-117048340D01*
X123759042Y-117048340D01*
X123568748Y-117115843D01*
X123318645Y-117264822D01*
X123102412Y-117459731D01*
X122928359Y-117693080D01*
X122803175Y-117955901D01*
X122758524Y-118103110D01*
X122879845Y-118333000D01*
X124073000Y-118333000D01*
X124073000Y-118313000D01*
X124327000Y-118313000D01*
X124327000Y-118333000D01*
X124347000Y-118333000D01*
X124347000Y-118587000D01*
X124327000Y-118587000D01*
X124327000Y-118607000D01*
X124073000Y-118607000D01*
X124073000Y-118587000D01*
X122879845Y-118587000D01*
X122758524Y-118816890D01*
X122803175Y-118964099D01*
X122928359Y-119226920D01*
X123102412Y-119460269D01*
X123318645Y-119655178D01*
X123348564Y-119673000D01*
X120743236Y-119673000D01*
X120707746Y-119629754D01*
X120632418Y-119567935D01*
X120546478Y-119521999D01*
X120453227Y-119493711D01*
X120356250Y-119484160D01*
X119843750Y-119484160D01*
X119746773Y-119493711D01*
X119653522Y-119521999D01*
X119567582Y-119567935D01*
X119492254Y-119629754D01*
X119430435Y-119705082D01*
X119384499Y-119791022D01*
X119356211Y-119884273D01*
X119350427Y-119943000D01*
X117673969Y-119943000D01*
X117638919Y-119924265D01*
X117558565Y-119899890D01*
X117475000Y-119891660D01*
X115825000Y-119891660D01*
X115741435Y-119899890D01*
X115661081Y-119924265D01*
X115587027Y-119963848D01*
X115522118Y-120017118D01*
X115468848Y-120082027D01*
X115429265Y-120156081D01*
X115404890Y-120236435D01*
X115396660Y-120320000D01*
X115396660Y-120620000D01*
X115404890Y-120703565D01*
X115429265Y-120783919D01*
X115468848Y-120857973D01*
X115522118Y-120922882D01*
X115587027Y-120976152D01*
X115661081Y-121015735D01*
X115741435Y-121040110D01*
X115825000Y-121048340D01*
X117475000Y-121048340D01*
X117558565Y-121040110D01*
X117638919Y-121015735D01*
X117673969Y-120997000D01*
X119562629Y-120997000D01*
X119492254Y-121054754D01*
X119430435Y-121130082D01*
X119386114Y-121213000D01*
X117673969Y-121213000D01*
X117638919Y-121194265D01*
X117558565Y-121169890D01*
X117475000Y-121161660D01*
X115825000Y-121161660D01*
X115741435Y-121169890D01*
X115661081Y-121194265D01*
X115587027Y-121233848D01*
X115522118Y-121287118D01*
X115468848Y-121352027D01*
X115429265Y-121426081D01*
X115404890Y-121506435D01*
X115396660Y-121590000D01*
X115396660Y-121660953D01*
X115296996Y-121594360D01*
X115182889Y-121547095D01*
X115061754Y-121523000D01*
X114938246Y-121523000D01*
X114817111Y-121547095D01*
X114703004Y-121594360D01*
X114600311Y-121662977D01*
X114512977Y-121750311D01*
X114444360Y-121853004D01*
X114397095Y-121967111D01*
X114373000Y-122088246D01*
X114373000Y-122211754D01*
X114397095Y-122332889D01*
X114444360Y-122446996D01*
X114512977Y-122549689D01*
X114600311Y-122637023D01*
X114703004Y-122705640D01*
X114817111Y-122752905D01*
X114867673Y-122762962D01*
X115429996Y-123325287D01*
X115468848Y-123397973D01*
X115522118Y-123462882D01*
X115555161Y-123490000D01*
X115472998Y-123490000D01*
X115472998Y-123648748D01*
X115314250Y-123490000D01*
X115150000Y-123486928D01*
X115025518Y-123499188D01*
X114905820Y-123535498D01*
X114795506Y-123594463D01*
X114698815Y-123673815D01*
X114619463Y-123770506D01*
X114560498Y-123880820D01*
X114524188Y-124000518D01*
X114511928Y-124125000D01*
X114515000Y-124314250D01*
X114673750Y-124473000D01*
X115473000Y-124473000D01*
X115473000Y-124453000D01*
X115727000Y-124453000D01*
X115727000Y-124473000D01*
X115747000Y-124473000D01*
X115747000Y-124727000D01*
X115727000Y-124727000D01*
X115727000Y-124747000D01*
X115473000Y-124747000D01*
X115473000Y-124727000D01*
X114673750Y-124727000D01*
X114515000Y-124885750D01*
X114513989Y-124948010D01*
X107996854Y-124948010D01*
X107978340Y-124929496D01*
X107978340Y-123950000D01*
X107972992Y-123895699D01*
X107957153Y-123843484D01*
X107931431Y-123795363D01*
X107896816Y-123753184D01*
X107854637Y-123718569D01*
X107806516Y-123692847D01*
X107754301Y-123677008D01*
X107700000Y-123671660D01*
X105200000Y-123671660D01*
X105145699Y-123677008D01*
X105093484Y-123692847D01*
X105045363Y-123718569D01*
X105003184Y-123753184D01*
X104968569Y-123795363D01*
X104942847Y-123843484D01*
X104927008Y-123895699D01*
X104921660Y-123950000D01*
X104921660Y-125050000D01*
X104927008Y-125104301D01*
X104942847Y-125156516D01*
X104954540Y-125178392D01*
X104933778Y-125170232D01*
X104627000Y-125115000D01*
X103827000Y-125115000D01*
X103827000Y-126573000D01*
X105920584Y-126573000D01*
X106040586Y-126327412D01*
X106012949Y-126210779D01*
X105888436Y-125925017D01*
X105710566Y-125669038D01*
X105486175Y-125452678D01*
X105292544Y-125328340D01*
X106179497Y-125328340D01*
X107098600Y-126247444D01*
X107122930Y-126277090D01*
X107241244Y-126374187D01*
X107376226Y-126446337D01*
X107522691Y-126490767D01*
X107636844Y-126502010D01*
X107636846Y-126502010D01*
X107675010Y-126505769D01*
X107713173Y-126502010D01*
X117286846Y-126502010D01*
X117325010Y-126505769D01*
X117363173Y-126502010D01*
X119278167Y-126502010D01*
X119382575Y-126606418D01*
X119383071Y-126608053D01*
X119427275Y-126690751D01*
X119486763Y-126763237D01*
X119559249Y-126822725D01*
X119641947Y-126866929D01*
X119666746Y-126874452D01*
X119754199Y-126921195D01*
X119801216Y-126946327D01*
X119947681Y-126990757D01*
X120061834Y-127002000D01*
X120061836Y-127002000D01*
X120100000Y-127005759D01*
X120138163Y-127002000D01*
X123388749Y-127002000D01*
X123446234Y-127049177D01*
X123581217Y-127121327D01*
X123727682Y-127165756D01*
X123880000Y-127180759D01*
X123931551Y-127175681D01*
X124089000Y-127207000D01*
X124311000Y-127207000D01*
X124528734Y-127163690D01*
X124733835Y-127078734D01*
X124918421Y-126955398D01*
X125075398Y-126798421D01*
X125198734Y-126613835D01*
X125283690Y-126408734D01*
X125298000Y-126336792D01*
X125298000Y-128518013D01*
X125216870Y-128616870D01*
X125118013Y-128698000D01*
X101081987Y-128698000D01*
X100983130Y-128616870D01*
X100902000Y-128518013D01*
X100902000Y-127072588D01*
X101359414Y-127072588D01*
X101387051Y-127189221D01*
X101511564Y-127474983D01*
X101689434Y-127730962D01*
X101913825Y-127947322D01*
X102176114Y-128115748D01*
X102466222Y-128229768D01*
X102773000Y-128285000D01*
X103573000Y-128285000D01*
X103573000Y-126827000D01*
X103827000Y-126827000D01*
X103827000Y-128285000D01*
X104627000Y-128285000D01*
X104933778Y-128229768D01*
X105223886Y-128115748D01*
X105486175Y-127947322D01*
X105710566Y-127730962D01*
X105888436Y-127474983D01*
X106012949Y-127189221D01*
X106040586Y-127072588D01*
X105920584Y-126827000D01*
X103827000Y-126827000D01*
X103573000Y-126827000D01*
X101479416Y-126827000D01*
X101359414Y-127072588D01*
X100902000Y-127072588D01*
X100902000Y-126327412D01*
X101359414Y-126327412D01*
X101479416Y-126573000D01*
X103573000Y-126573000D01*
X103573000Y-125115000D01*
X102773000Y-125115000D01*
X102466222Y-125170232D01*
X102176114Y-125284252D01*
X101913825Y-125452678D01*
X101689434Y-125669038D01*
X101511564Y-125925017D01*
X101387051Y-126210779D01*
X101359414Y-126327412D01*
X100902000Y-126327412D01*
X100902000Y-123218548D01*
X102873000Y-123218548D01*
X102873000Y-123381452D01*
X102904782Y-123541227D01*
X102967123Y-123691731D01*
X103057628Y-123827181D01*
X103172819Y-123942372D01*
X103308269Y-124032877D01*
X103458773Y-124095218D01*
X103618548Y-124127000D01*
X103781452Y-124127000D01*
X103941227Y-124095218D01*
X104091731Y-124032877D01*
X104227181Y-123942372D01*
X104342372Y-123827181D01*
X104432877Y-123691731D01*
X104495218Y-123541227D01*
X104527000Y-123381452D01*
X104527000Y-123218548D01*
X104495218Y-123058773D01*
X104432877Y-122908269D01*
X104342372Y-122772819D01*
X104227181Y-122657628D01*
X104091731Y-122567123D01*
X103941227Y-122504782D01*
X103781452Y-122473000D01*
X103618548Y-122473000D01*
X103458773Y-122504782D01*
X103308269Y-122567123D01*
X103172819Y-122657628D01*
X103057628Y-122772819D01*
X102967123Y-122908269D01*
X102904782Y-123058773D01*
X102873000Y-123218548D01*
X100902000Y-123218548D01*
X100902000Y-118618548D01*
X102873000Y-118618548D01*
X102873000Y-118781452D01*
X102904782Y-118941227D01*
X102967123Y-119091731D01*
X103057628Y-119227181D01*
X103172819Y-119342372D01*
X103308269Y-119432877D01*
X103458773Y-119495218D01*
X103618548Y-119527000D01*
X103781452Y-119527000D01*
X103941227Y-119495218D01*
X104050392Y-119450000D01*
X104921660Y-119450000D01*
X104921660Y-120550000D01*
X104927008Y-120604301D01*
X104942847Y-120656516D01*
X104968569Y-120704637D01*
X105003184Y-120746816D01*
X105045363Y-120781431D01*
X105093484Y-120807153D01*
X105145699Y-120822992D01*
X105200000Y-120828340D01*
X107700000Y-120828340D01*
X107754301Y-120822992D01*
X107806516Y-120807153D01*
X107854637Y-120781431D01*
X107896816Y-120746816D01*
X107931431Y-120704637D01*
X107957153Y-120656516D01*
X107972992Y-120604301D01*
X107978340Y-120550000D01*
X107978340Y-120417000D01*
X108152275Y-120417000D01*
X108735274Y-121000000D01*
X108152275Y-121583000D01*
X107978340Y-121583000D01*
X107978340Y-121450000D01*
X107972992Y-121395699D01*
X107957153Y-121343484D01*
X107931431Y-121295363D01*
X107896816Y-121253184D01*
X107854637Y-121218569D01*
X107806516Y-121192847D01*
X107754301Y-121177008D01*
X107700000Y-121171660D01*
X105200000Y-121171660D01*
X105145699Y-121177008D01*
X105093484Y-121192847D01*
X105045363Y-121218569D01*
X105003184Y-121253184D01*
X104968569Y-121295363D01*
X104942847Y-121343484D01*
X104927008Y-121395699D01*
X104921660Y-121450000D01*
X104921660Y-122550000D01*
X104927008Y-122604301D01*
X104942847Y-122656516D01*
X104968569Y-122704637D01*
X105003184Y-122746816D01*
X105045363Y-122781431D01*
X105093484Y-122807153D01*
X105145699Y-122822992D01*
X105200000Y-122828340D01*
X107700000Y-122828340D01*
X107754301Y-122822992D01*
X107806516Y-122807153D01*
X107854637Y-122781431D01*
X107896816Y-122746816D01*
X107931431Y-122704637D01*
X107957153Y-122656516D01*
X107972992Y-122604301D01*
X107978340Y-122550000D01*
X107978340Y-122417000D01*
X108304524Y-122417000D01*
X108325001Y-122419017D01*
X108345478Y-122417000D01*
X108345481Y-122417000D01*
X108406747Y-122410966D01*
X108485352Y-122387121D01*
X108557794Y-122348400D01*
X108621291Y-122296290D01*
X108634352Y-122280376D01*
X108874728Y-122040000D01*
X110086928Y-122040000D01*
X110099188Y-122164482D01*
X110135498Y-122284180D01*
X110194463Y-122394494D01*
X110273815Y-122491185D01*
X110370506Y-122570537D01*
X110480820Y-122629502D01*
X110510104Y-122638385D01*
X110479265Y-122696081D01*
X110454890Y-122776435D01*
X110446660Y-122860000D01*
X110446660Y-123160000D01*
X110454890Y-123243565D01*
X110479265Y-123323919D01*
X110518848Y-123397973D01*
X110572118Y-123462882D01*
X110637027Y-123516152D01*
X110711081Y-123555735D01*
X110791435Y-123580110D01*
X110875000Y-123588340D01*
X112525000Y-123588340D01*
X112608565Y-123580110D01*
X112688919Y-123555735D01*
X112723969Y-123537000D01*
X113364119Y-123537000D01*
X113390000Y-123539549D01*
X113415881Y-123537000D01*
X113493310Y-123529374D01*
X113501136Y-123527000D01*
X113561754Y-123527000D01*
X113682889Y-123502905D01*
X113796996Y-123455640D01*
X113899689Y-123387023D01*
X113987023Y-123299689D01*
X114055640Y-123196996D01*
X114102905Y-123082889D01*
X114127000Y-122961754D01*
X114127000Y-122838246D01*
X114102905Y-122717111D01*
X114055640Y-122603004D01*
X113987023Y-122500311D01*
X113899689Y-122412977D01*
X113796996Y-122344360D01*
X113682889Y-122297095D01*
X113561754Y-122273000D01*
X113438246Y-122273000D01*
X113317111Y-122297095D01*
X113240675Y-122328756D01*
X113264502Y-122284180D01*
X113300812Y-122164482D01*
X113313072Y-122040000D01*
X113310000Y-122025750D01*
X113151250Y-121867000D01*
X111827000Y-121867000D01*
X111827000Y-121887000D01*
X111573000Y-121887000D01*
X111573000Y-121867000D01*
X110248750Y-121867000D01*
X110090000Y-122025750D01*
X110086928Y-122040000D01*
X108874728Y-122040000D01*
X109281728Y-121633000D01*
X110274464Y-121633000D01*
X110294941Y-121635017D01*
X110315418Y-121633000D01*
X110315421Y-121633000D01*
X110376687Y-121626966D01*
X110422726Y-121613000D01*
X111573000Y-121613000D01*
X111573000Y-121593000D01*
X111827000Y-121593000D01*
X111827000Y-121613000D01*
X113151250Y-121613000D01*
X113310000Y-121454250D01*
X113313072Y-121440000D01*
X113300812Y-121315518D01*
X113264502Y-121195820D01*
X113205537Y-121085506D01*
X113126185Y-120988815D01*
X113029494Y-120909463D01*
X112919180Y-120850498D01*
X112889896Y-120841615D01*
X112920735Y-120783919D01*
X112945110Y-120703565D01*
X112953340Y-120620000D01*
X112953340Y-120320000D01*
X112945110Y-120236435D01*
X112920735Y-120156081D01*
X112881152Y-120082027D01*
X112827882Y-120017118D01*
X112762973Y-119963848D01*
X112688919Y-119924265D01*
X112608565Y-119899890D01*
X112525000Y-119891660D01*
X111598067Y-119891660D01*
X111711387Y-119778340D01*
X112525000Y-119778340D01*
X112608565Y-119770110D01*
X112688919Y-119745735D01*
X112762973Y-119706152D01*
X112827882Y-119652882D01*
X112881152Y-119587973D01*
X112920735Y-119513919D01*
X112945110Y-119433565D01*
X112953340Y-119350000D01*
X112953340Y-119050000D01*
X112945110Y-118966435D01*
X112920735Y-118886081D01*
X112881152Y-118812027D01*
X112827882Y-118747118D01*
X112762973Y-118693848D01*
X112688919Y-118654265D01*
X112608565Y-118629890D01*
X112525000Y-118621660D01*
X110875000Y-118621660D01*
X110791435Y-118629890D01*
X110711081Y-118654265D01*
X110637027Y-118693848D01*
X110572118Y-118747118D01*
X110518848Y-118812027D01*
X110479265Y-118886081D01*
X110454890Y-118966435D01*
X110446660Y-119050000D01*
X110446660Y-119350000D01*
X110454890Y-119433565D01*
X110479265Y-119513919D01*
X110482319Y-119519632D01*
X110459946Y-119531590D01*
X110438709Y-119549020D01*
X110396450Y-119583700D01*
X110383389Y-119599615D01*
X110154615Y-119828389D01*
X110138700Y-119841450D01*
X110086590Y-119904948D01*
X110047869Y-119977390D01*
X110024024Y-120055995D01*
X110020016Y-120096690D01*
X110015973Y-120137740D01*
X110017990Y-120158217D01*
X110017990Y-120292283D01*
X109943274Y-120367000D01*
X109281728Y-120367000D01*
X108634352Y-119719624D01*
X108621291Y-119703710D01*
X108557794Y-119651600D01*
X108485352Y-119612879D01*
X108406747Y-119589034D01*
X108345481Y-119583000D01*
X108345478Y-119583000D01*
X108325001Y-119580983D01*
X108304524Y-119583000D01*
X107978340Y-119583000D01*
X107978340Y-119450000D01*
X107972992Y-119395699D01*
X107957153Y-119343484D01*
X107931431Y-119295363D01*
X107896816Y-119253184D01*
X107854637Y-119218569D01*
X107806516Y-119192847D01*
X107754301Y-119177008D01*
X107700000Y-119171660D01*
X105200000Y-119171660D01*
X105145699Y-119177008D01*
X105093484Y-119192847D01*
X105045363Y-119218569D01*
X105003184Y-119253184D01*
X104968569Y-119295363D01*
X104942847Y-119343484D01*
X104927008Y-119395699D01*
X104921660Y-119450000D01*
X104050392Y-119450000D01*
X104091731Y-119432877D01*
X104227181Y-119342372D01*
X104342372Y-119227181D01*
X104432877Y-119091731D01*
X104495218Y-118941227D01*
X104527000Y-118781452D01*
X104527000Y-118618548D01*
X104495218Y-118458773D01*
X104432877Y-118308269D01*
X104342372Y-118172819D01*
X104227181Y-118057628D01*
X104215765Y-118050000D01*
X104561928Y-118050000D01*
X104574188Y-118174482D01*
X104610498Y-118294180D01*
X104669463Y-118404494D01*
X104748815Y-118501185D01*
X104845506Y-118580537D01*
X104955820Y-118639502D01*
X105075518Y-118675812D01*
X105200000Y-118688072D01*
X106164250Y-118685000D01*
X106323000Y-118526250D01*
X106323000Y-117627000D01*
X106577000Y-117627000D01*
X106577000Y-118526250D01*
X106735750Y-118685000D01*
X107700000Y-118688072D01*
X107824482Y-118675812D01*
X107944180Y-118639502D01*
X108054494Y-118580537D01*
X108151185Y-118501185D01*
X108230537Y-118404494D01*
X108289502Y-118294180D01*
X108325654Y-118175000D01*
X114561928Y-118175000D01*
X114574188Y-118299482D01*
X114610498Y-118419180D01*
X114669463Y-118529494D01*
X114748815Y-118626185D01*
X114845506Y-118705537D01*
X114955820Y-118764502D01*
X115075518Y-118800812D01*
X115200000Y-118813072D01*
X115364250Y-118810000D01*
X115522998Y-118651252D01*
X115522998Y-118746396D01*
X115522118Y-118747118D01*
X115468848Y-118812027D01*
X115429265Y-118886081D01*
X115404890Y-118966435D01*
X115396660Y-119050000D01*
X115396660Y-119350000D01*
X115404890Y-119433565D01*
X115429265Y-119513919D01*
X115468848Y-119587973D01*
X115522118Y-119652882D01*
X115587027Y-119706152D01*
X115661081Y-119745735D01*
X115741435Y-119770110D01*
X115825000Y-119778340D01*
X117475000Y-119778340D01*
X117558565Y-119770110D01*
X117638919Y-119745735D01*
X117712973Y-119706152D01*
X117777882Y-119652882D01*
X117831152Y-119587973D01*
X117870735Y-119513919D01*
X117895110Y-119433565D01*
X117903340Y-119350000D01*
X117903340Y-119050000D01*
X117895110Y-118966435D01*
X117870735Y-118886081D01*
X117831152Y-118812027D01*
X117777882Y-118747118D01*
X117712973Y-118693848D01*
X117638919Y-118654265D01*
X117558565Y-118629890D01*
X117475000Y-118621660D01*
X117177000Y-118621660D01*
X117177000Y-118468289D01*
X117191949Y-118453340D01*
X117425000Y-118453340D01*
X117523197Y-118443668D01*
X117617620Y-118415026D01*
X117704641Y-118368512D01*
X117780915Y-118305915D01*
X117843512Y-118229641D01*
X117890026Y-118142620D01*
X117918668Y-118048197D01*
X117928340Y-117950000D01*
X117928340Y-117450000D01*
X117918668Y-117351803D01*
X117890026Y-117257380D01*
X117843512Y-117170359D01*
X117780915Y-117094085D01*
X117704641Y-117031488D01*
X117645732Y-117000000D01*
X119346660Y-117000000D01*
X119346660Y-117400000D01*
X119355851Y-117493320D01*
X119383071Y-117583053D01*
X119427275Y-117665751D01*
X119486763Y-117738237D01*
X119559249Y-117797725D01*
X119573000Y-117805075D01*
X119573001Y-117990039D01*
X119567582Y-117992935D01*
X119492254Y-118054754D01*
X119430435Y-118130082D01*
X119384499Y-118216022D01*
X119356211Y-118309273D01*
X119346660Y-118406250D01*
X119346660Y-118843750D01*
X119356211Y-118940727D01*
X119384499Y-119033978D01*
X119430435Y-119119918D01*
X119492254Y-119195246D01*
X119567582Y-119257065D01*
X119653522Y-119303001D01*
X119746773Y-119331289D01*
X119843750Y-119340840D01*
X120356250Y-119340840D01*
X120453227Y-119331289D01*
X120546478Y-119303001D01*
X120632418Y-119257065D01*
X120707746Y-119195246D01*
X120769565Y-119119918D01*
X120815501Y-119033978D01*
X120843789Y-118940727D01*
X120853340Y-118843750D01*
X120853340Y-118406250D01*
X120843789Y-118309273D01*
X120815501Y-118216022D01*
X120769565Y-118130082D01*
X120707746Y-118054754D01*
X120632418Y-117992935D01*
X120627000Y-117990039D01*
X120627000Y-117805075D01*
X120640751Y-117797725D01*
X120713237Y-117738237D01*
X120772725Y-117665751D01*
X120816929Y-117583053D01*
X120844149Y-117493320D01*
X120853340Y-117400000D01*
X120853340Y-117000000D01*
X120844149Y-116906680D01*
X120816929Y-116816947D01*
X120772725Y-116734249D01*
X120713237Y-116661763D01*
X120640751Y-116602275D01*
X120558053Y-116558071D01*
X120468320Y-116530851D01*
X120375000Y-116521660D01*
X119825000Y-116521660D01*
X119731680Y-116530851D01*
X119641947Y-116558071D01*
X119559249Y-116602275D01*
X119486763Y-116661763D01*
X119427275Y-116734249D01*
X119383071Y-116816947D01*
X119355851Y-116906680D01*
X119346660Y-117000000D01*
X117645732Y-117000000D01*
X117617620Y-116984974D01*
X117523197Y-116956332D01*
X117425000Y-116946660D01*
X116975000Y-116946660D01*
X116876803Y-116956332D01*
X116782380Y-116984974D01*
X116703545Y-117027113D01*
X116689502Y-116980820D01*
X116630537Y-116870506D01*
X116551185Y-116773815D01*
X116454494Y-116694463D01*
X116344180Y-116635498D01*
X116224482Y-116599188D01*
X116100000Y-116586928D01*
X115935750Y-116590000D01*
X115777000Y-116748750D01*
X115777000Y-117573000D01*
X115797000Y-117573000D01*
X115797000Y-117827000D01*
X115777000Y-117827000D01*
X115777000Y-117847000D01*
X115523000Y-117847000D01*
X115523000Y-117827000D01*
X114723750Y-117827000D01*
X114565000Y-117985750D01*
X114561928Y-118175000D01*
X108325654Y-118175000D01*
X108325812Y-118174482D01*
X108338072Y-118050000D01*
X108335000Y-117785750D01*
X108176250Y-117627000D01*
X106577000Y-117627000D01*
X106323000Y-117627000D01*
X104723750Y-117627000D01*
X104565000Y-117785750D01*
X104561928Y-118050000D01*
X104215765Y-118050000D01*
X104091731Y-117967123D01*
X103941227Y-117904782D01*
X103781452Y-117873000D01*
X103618548Y-117873000D01*
X103458773Y-117904782D01*
X103308269Y-117967123D01*
X103172819Y-118057628D01*
X103057628Y-118172819D01*
X102967123Y-118308269D01*
X102904782Y-118458773D01*
X102873000Y-118618548D01*
X100902000Y-118618548D01*
X100902000Y-115672588D01*
X101359414Y-115672588D01*
X101387051Y-115789221D01*
X101511564Y-116074983D01*
X101689434Y-116330962D01*
X101913825Y-116547322D01*
X102176114Y-116715748D01*
X102466222Y-116829768D01*
X102773000Y-116885000D01*
X103573000Y-116885000D01*
X103573000Y-115427000D01*
X103827000Y-115427000D01*
X103827000Y-116885000D01*
X104568330Y-116885000D01*
X104561928Y-116950000D01*
X104565000Y-117214250D01*
X104723750Y-117373000D01*
X106323000Y-117373000D01*
X106323000Y-116473750D01*
X106577000Y-116473750D01*
X106577000Y-117373000D01*
X108176250Y-117373000D01*
X108324250Y-117225000D01*
X114561928Y-117225000D01*
X114565000Y-117414250D01*
X114723750Y-117573000D01*
X115523000Y-117573000D01*
X115523000Y-116748750D01*
X115364250Y-116590000D01*
X115200000Y-116586928D01*
X115075518Y-116599188D01*
X114955820Y-116635498D01*
X114845506Y-116694463D01*
X114748815Y-116773815D01*
X114669463Y-116870506D01*
X114610498Y-116980820D01*
X114574188Y-117100518D01*
X114561928Y-117225000D01*
X108324250Y-117225000D01*
X108335000Y-117214250D01*
X108338072Y-116950000D01*
X108325812Y-116825518D01*
X108289502Y-116705820D01*
X108230537Y-116595506D01*
X108151185Y-116498815D01*
X108054494Y-116419463D01*
X107944180Y-116360498D01*
X107824482Y-116324188D01*
X107700000Y-116311928D01*
X106735750Y-116315000D01*
X106577000Y-116473750D01*
X106323000Y-116473750D01*
X106164250Y-116315000D01*
X105722635Y-116313593D01*
X105888436Y-116074983D01*
X106012949Y-115789221D01*
X106040586Y-115672588D01*
X105974943Y-115538246D01*
X118073000Y-115538246D01*
X118073000Y-115661754D01*
X118097095Y-115782889D01*
X118144360Y-115896996D01*
X118212977Y-115999689D01*
X118300311Y-116087023D01*
X118403004Y-116155640D01*
X118517111Y-116202905D01*
X118638246Y-116227000D01*
X118761754Y-116227000D01*
X118882889Y-116202905D01*
X118996996Y-116155640D01*
X119039859Y-116127000D01*
X119533996Y-116127000D01*
X119559249Y-116147725D01*
X119641947Y-116191929D01*
X119731680Y-116219149D01*
X119825000Y-116228340D01*
X120375000Y-116228340D01*
X120468320Y-116219149D01*
X120558053Y-116191929D01*
X120640751Y-116147725D01*
X120713237Y-116088237D01*
X120772725Y-116015751D01*
X120816929Y-115933053D01*
X120844149Y-115843320D01*
X120853340Y-115750000D01*
X120853340Y-115350000D01*
X120844149Y-115256680D01*
X120816929Y-115166947D01*
X120772725Y-115084249D01*
X120713237Y-115011763D01*
X120640751Y-114952275D01*
X120558053Y-114908071D01*
X120468320Y-114880851D01*
X120375000Y-114871660D01*
X119825000Y-114871660D01*
X119731680Y-114880851D01*
X119641947Y-114908071D01*
X119559249Y-114952275D01*
X119486763Y-115011763D01*
X119436507Y-115073000D01*
X119039859Y-115073000D01*
X118996996Y-115044360D01*
X118882889Y-114997095D01*
X118761754Y-114973000D01*
X118638246Y-114973000D01*
X118517111Y-114997095D01*
X118403004Y-115044360D01*
X118300311Y-115112977D01*
X118212977Y-115200311D01*
X118144360Y-115303004D01*
X118097095Y-115417111D01*
X118073000Y-115538246D01*
X105974943Y-115538246D01*
X105920584Y-115427000D01*
X103827000Y-115427000D01*
X103573000Y-115427000D01*
X101479416Y-115427000D01*
X101359414Y-115672588D01*
X100902000Y-115672588D01*
X100902000Y-114927412D01*
X101359414Y-114927412D01*
X101479416Y-115173000D01*
X103573000Y-115173000D01*
X103573000Y-113715000D01*
X103827000Y-113715000D01*
X103827000Y-115173000D01*
X105920584Y-115173000D01*
X106040586Y-114927412D01*
X106012949Y-114810779D01*
X105888436Y-114525017D01*
X105710566Y-114269038D01*
X105486175Y-114052678D01*
X105223886Y-113884252D01*
X104933778Y-113770232D01*
X104627000Y-113715000D01*
X103827000Y-113715000D01*
X103573000Y-113715000D01*
X102773000Y-113715000D01*
X102466222Y-113770232D01*
X102176114Y-113884252D01*
X101913825Y-114052678D01*
X101689434Y-114269038D01*
X101511564Y-114525017D01*
X101387051Y-114810779D01*
X101359414Y-114927412D01*
X100902000Y-114927412D01*
X100902000Y-113481987D01*
X100983130Y-113383130D01*
X101081987Y-113302000D01*
X125118013Y-113302000D01*
X125216870Y-113383130D01*
%TA.AperFunction,Conductor*%
D19*
G36*
X125216870Y-113383130D02*
G01*
X125298001Y-113481988D01*
X125298001Y-114946362D01*
X125281431Y-114915363D01*
X125246816Y-114873184D01*
X125204637Y-114838569D01*
X125156516Y-114812847D01*
X125104301Y-114797008D01*
X125050000Y-114791660D01*
X123350000Y-114791660D01*
X123295699Y-114797008D01*
X123243484Y-114812847D01*
X123195363Y-114838569D01*
X123153184Y-114873184D01*
X123118569Y-114915363D01*
X123092847Y-114963484D01*
X123077008Y-115015699D01*
X123071660Y-115070000D01*
X123071660Y-115473000D01*
X122939859Y-115473000D01*
X122896996Y-115444360D01*
X122782889Y-115397095D01*
X122661754Y-115373000D01*
X122538246Y-115373000D01*
X122417111Y-115397095D01*
X122303004Y-115444360D01*
X122200311Y-115512977D01*
X122112977Y-115600311D01*
X122044360Y-115703004D01*
X121997095Y-115817111D01*
X121973000Y-115938246D01*
X121973000Y-116061754D01*
X121997095Y-116182889D01*
X122044360Y-116296996D01*
X122112977Y-116399689D01*
X122200311Y-116487023D01*
X122303004Y-116555640D01*
X122417111Y-116602905D01*
X122538246Y-116627000D01*
X122661754Y-116627000D01*
X122782889Y-116602905D01*
X122896996Y-116555640D01*
X122939859Y-116527000D01*
X123071660Y-116527000D01*
X123071660Y-116770000D01*
X123077008Y-116824301D01*
X123092847Y-116876516D01*
X123118569Y-116924637D01*
X123153184Y-116966816D01*
X123195363Y-117001431D01*
X123243484Y-117027153D01*
X123295699Y-117042992D01*
X123350000Y-117048340D01*
X123759042Y-117048340D01*
X123568748Y-117115843D01*
X123318645Y-117264822D01*
X123102412Y-117459731D01*
X122928359Y-117693080D01*
X122803175Y-117955901D01*
X122758524Y-118103110D01*
X122879845Y-118333000D01*
X124073000Y-118333000D01*
X124073000Y-118313000D01*
X124327000Y-118313000D01*
X124327000Y-118333000D01*
X124347000Y-118333000D01*
X124347000Y-118587000D01*
X124327000Y-118587000D01*
X124327000Y-118607000D01*
X124073000Y-118607000D01*
X124073000Y-118587000D01*
X122879845Y-118587000D01*
X122758524Y-118816890D01*
X122803175Y-118964099D01*
X122928359Y-119226920D01*
X123102412Y-119460269D01*
X123318645Y-119655178D01*
X123348564Y-119673000D01*
X120743236Y-119673000D01*
X120707746Y-119629754D01*
X120632418Y-119567935D01*
X120546478Y-119521999D01*
X120453227Y-119493711D01*
X120356250Y-119484160D01*
X119843750Y-119484160D01*
X119746773Y-119493711D01*
X119653522Y-119521999D01*
X119567582Y-119567935D01*
X119492254Y-119629754D01*
X119430435Y-119705082D01*
X119384499Y-119791022D01*
X119356211Y-119884273D01*
X119350427Y-119943000D01*
X117673969Y-119943000D01*
X117638919Y-119924265D01*
X117558565Y-119899890D01*
X117475000Y-119891660D01*
X115825000Y-119891660D01*
X115741435Y-119899890D01*
X115661081Y-119924265D01*
X115587027Y-119963848D01*
X115522118Y-120017118D01*
X115468848Y-120082027D01*
X115429265Y-120156081D01*
X115404890Y-120236435D01*
X115396660Y-120320000D01*
X115396660Y-120620000D01*
X115404890Y-120703565D01*
X115429265Y-120783919D01*
X115468848Y-120857973D01*
X115522118Y-120922882D01*
X115587027Y-120976152D01*
X115661081Y-121015735D01*
X115741435Y-121040110D01*
X115825000Y-121048340D01*
X117475000Y-121048340D01*
X117558565Y-121040110D01*
X117638919Y-121015735D01*
X117673969Y-120997000D01*
X119562629Y-120997000D01*
X119492254Y-121054754D01*
X119430435Y-121130082D01*
X119386114Y-121213000D01*
X117673969Y-121213000D01*
X117638919Y-121194265D01*
X117558565Y-121169890D01*
X117475000Y-121161660D01*
X115825000Y-121161660D01*
X115741435Y-121169890D01*
X115661081Y-121194265D01*
X115587027Y-121233848D01*
X115522118Y-121287118D01*
X115468848Y-121352027D01*
X115429265Y-121426081D01*
X115404890Y-121506435D01*
X115396660Y-121590000D01*
X115396660Y-121660953D01*
X115296996Y-121594360D01*
X115182889Y-121547095D01*
X115061754Y-121523000D01*
X114938246Y-121523000D01*
X114817111Y-121547095D01*
X114703004Y-121594360D01*
X114600311Y-121662977D01*
X114512977Y-121750311D01*
X114444360Y-121853004D01*
X114397095Y-121967111D01*
X114373000Y-122088246D01*
X114373000Y-122211754D01*
X114397095Y-122332889D01*
X114444360Y-122446996D01*
X114512977Y-122549689D01*
X114600311Y-122637023D01*
X114703004Y-122705640D01*
X114817111Y-122752905D01*
X114867673Y-122762962D01*
X115429996Y-123325287D01*
X115468848Y-123397973D01*
X115522118Y-123462882D01*
X115555161Y-123490000D01*
X115472998Y-123490000D01*
X115472998Y-123648748D01*
X115314250Y-123490000D01*
X115150000Y-123486928D01*
X115025518Y-123499188D01*
X114905820Y-123535498D01*
X114795506Y-123594463D01*
X114698815Y-123673815D01*
X114619463Y-123770506D01*
X114560498Y-123880820D01*
X114524188Y-124000518D01*
X114511928Y-124125000D01*
X114515000Y-124314250D01*
X114673750Y-124473000D01*
X115473000Y-124473000D01*
X115473000Y-124453000D01*
X115727000Y-124453000D01*
X115727000Y-124473000D01*
X115747000Y-124473000D01*
X115747000Y-124727000D01*
X115727000Y-124727000D01*
X115727000Y-124747000D01*
X115473000Y-124747000D01*
X115473000Y-124727000D01*
X114673750Y-124727000D01*
X114515000Y-124885750D01*
X114513989Y-124948010D01*
X107996854Y-124948010D01*
X107978340Y-124929496D01*
X107978340Y-123950000D01*
X107972992Y-123895699D01*
X107957153Y-123843484D01*
X107931431Y-123795363D01*
X107896816Y-123753184D01*
X107854637Y-123718569D01*
X107806516Y-123692847D01*
X107754301Y-123677008D01*
X107700000Y-123671660D01*
X105200000Y-123671660D01*
X105145699Y-123677008D01*
X105093484Y-123692847D01*
X105045363Y-123718569D01*
X105003184Y-123753184D01*
X104968569Y-123795363D01*
X104942847Y-123843484D01*
X104927008Y-123895699D01*
X104921660Y-123950000D01*
X104921660Y-125050000D01*
X104927008Y-125104301D01*
X104942847Y-125156516D01*
X104954540Y-125178392D01*
X104933778Y-125170232D01*
X104627000Y-125115000D01*
X103827000Y-125115000D01*
X103827000Y-126573000D01*
X105920584Y-126573000D01*
X106040586Y-126327412D01*
X106012949Y-126210779D01*
X105888436Y-125925017D01*
X105710566Y-125669038D01*
X105486175Y-125452678D01*
X105292544Y-125328340D01*
X106179497Y-125328340D01*
X107098600Y-126247444D01*
X107122930Y-126277090D01*
X107241244Y-126374187D01*
X107376226Y-126446337D01*
X107522691Y-126490767D01*
X107636844Y-126502010D01*
X107636846Y-126502010D01*
X107675010Y-126505769D01*
X107713173Y-126502010D01*
X117286846Y-126502010D01*
X117325010Y-126505769D01*
X117363173Y-126502010D01*
X119278167Y-126502010D01*
X119382575Y-126606418D01*
X119383071Y-126608053D01*
X119427275Y-126690751D01*
X119486763Y-126763237D01*
X119559249Y-126822725D01*
X119641947Y-126866929D01*
X119666746Y-126874452D01*
X119754199Y-126921195D01*
X119801216Y-126946327D01*
X119947681Y-126990757D01*
X120061834Y-127002000D01*
X120061836Y-127002000D01*
X120100000Y-127005759D01*
X120138163Y-127002000D01*
X123388749Y-127002000D01*
X123446234Y-127049177D01*
X123581217Y-127121327D01*
X123727682Y-127165756D01*
X123880000Y-127180759D01*
X123931551Y-127175681D01*
X124089000Y-127207000D01*
X124311000Y-127207000D01*
X124528734Y-127163690D01*
X124733835Y-127078734D01*
X124918421Y-126955398D01*
X125075398Y-126798421D01*
X125198734Y-126613835D01*
X125283690Y-126408734D01*
X125298000Y-126336792D01*
X125298000Y-128518013D01*
X125216870Y-128616870D01*
X125118013Y-128698000D01*
X101081987Y-128698000D01*
X100983130Y-128616870D01*
X100902000Y-128518013D01*
X100902000Y-127072588D01*
X101359414Y-127072588D01*
X101387051Y-127189221D01*
X101511564Y-127474983D01*
X101689434Y-127730962D01*
X101913825Y-127947322D01*
X102176114Y-128115748D01*
X102466222Y-128229768D01*
X102773000Y-128285000D01*
X103573000Y-128285000D01*
X103573000Y-126827000D01*
X103827000Y-126827000D01*
X103827000Y-128285000D01*
X104627000Y-128285000D01*
X104933778Y-128229768D01*
X105223886Y-128115748D01*
X105486175Y-127947322D01*
X105710566Y-127730962D01*
X105888436Y-127474983D01*
X106012949Y-127189221D01*
X106040586Y-127072588D01*
X105920584Y-126827000D01*
X103827000Y-126827000D01*
X103573000Y-126827000D01*
X101479416Y-126827000D01*
X101359414Y-127072588D01*
X100902000Y-127072588D01*
X100902000Y-126327412D01*
X101359414Y-126327412D01*
X101479416Y-126573000D01*
X103573000Y-126573000D01*
X103573000Y-125115000D01*
X102773000Y-125115000D01*
X102466222Y-125170232D01*
X102176114Y-125284252D01*
X101913825Y-125452678D01*
X101689434Y-125669038D01*
X101511564Y-125925017D01*
X101387051Y-126210779D01*
X101359414Y-126327412D01*
X100902000Y-126327412D01*
X100902000Y-123218548D01*
X102873000Y-123218548D01*
X102873000Y-123381452D01*
X102904782Y-123541227D01*
X102967123Y-123691731D01*
X103057628Y-123827181D01*
X103172819Y-123942372D01*
X103308269Y-124032877D01*
X103458773Y-124095218D01*
X103618548Y-124127000D01*
X103781452Y-124127000D01*
X103941227Y-124095218D01*
X104091731Y-124032877D01*
X104227181Y-123942372D01*
X104342372Y-123827181D01*
X104432877Y-123691731D01*
X104495218Y-123541227D01*
X104527000Y-123381452D01*
X104527000Y-123218548D01*
X104495218Y-123058773D01*
X104432877Y-122908269D01*
X104342372Y-122772819D01*
X104227181Y-122657628D01*
X104091731Y-122567123D01*
X103941227Y-122504782D01*
X103781452Y-122473000D01*
X103618548Y-122473000D01*
X103458773Y-122504782D01*
X103308269Y-122567123D01*
X103172819Y-122657628D01*
X103057628Y-122772819D01*
X102967123Y-122908269D01*
X102904782Y-123058773D01*
X102873000Y-123218548D01*
X100902000Y-123218548D01*
X100902000Y-118618548D01*
X102873000Y-118618548D01*
X102873000Y-118781452D01*
X102904782Y-118941227D01*
X102967123Y-119091731D01*
X103057628Y-119227181D01*
X103172819Y-119342372D01*
X103308269Y-119432877D01*
X103458773Y-119495218D01*
X103618548Y-119527000D01*
X103781452Y-119527000D01*
X103941227Y-119495218D01*
X104050392Y-119450000D01*
X104921660Y-119450000D01*
X104921660Y-120550000D01*
X104927008Y-120604301D01*
X104942847Y-120656516D01*
X104968569Y-120704637D01*
X105003184Y-120746816D01*
X105045363Y-120781431D01*
X105093484Y-120807153D01*
X105145699Y-120822992D01*
X105200000Y-120828340D01*
X107700000Y-120828340D01*
X107754301Y-120822992D01*
X107806516Y-120807153D01*
X107854637Y-120781431D01*
X107896816Y-120746816D01*
X107931431Y-120704637D01*
X107957153Y-120656516D01*
X107972992Y-120604301D01*
X107978340Y-120550000D01*
X107978340Y-120417000D01*
X108152275Y-120417000D01*
X108735274Y-121000000D01*
X108152275Y-121583000D01*
X107978340Y-121583000D01*
X107978340Y-121450000D01*
X107972992Y-121395699D01*
X107957153Y-121343484D01*
X107931431Y-121295363D01*
X107896816Y-121253184D01*
X107854637Y-121218569D01*
X107806516Y-121192847D01*
X107754301Y-121177008D01*
X107700000Y-121171660D01*
X105200000Y-121171660D01*
X105145699Y-121177008D01*
X105093484Y-121192847D01*
X105045363Y-121218569D01*
X105003184Y-121253184D01*
X104968569Y-121295363D01*
X104942847Y-121343484D01*
X104927008Y-121395699D01*
X104921660Y-121450000D01*
X104921660Y-122550000D01*
X104927008Y-122604301D01*
X104942847Y-122656516D01*
X104968569Y-122704637D01*
X105003184Y-122746816D01*
X105045363Y-122781431D01*
X105093484Y-122807153D01*
X105145699Y-122822992D01*
X105200000Y-122828340D01*
X107700000Y-122828340D01*
X107754301Y-122822992D01*
X107806516Y-122807153D01*
X107854637Y-122781431D01*
X107896816Y-122746816D01*
X107931431Y-122704637D01*
X107957153Y-122656516D01*
X107972992Y-122604301D01*
X107978340Y-122550000D01*
X107978340Y-122417000D01*
X108304524Y-122417000D01*
X108325001Y-122419017D01*
X108345478Y-122417000D01*
X108345481Y-122417000D01*
X108406747Y-122410966D01*
X108485352Y-122387121D01*
X108557794Y-122348400D01*
X108621291Y-122296290D01*
X108634352Y-122280376D01*
X108874728Y-122040000D01*
X110086928Y-122040000D01*
X110099188Y-122164482D01*
X110135498Y-122284180D01*
X110194463Y-122394494D01*
X110273815Y-122491185D01*
X110370506Y-122570537D01*
X110480820Y-122629502D01*
X110510104Y-122638385D01*
X110479265Y-122696081D01*
X110454890Y-122776435D01*
X110446660Y-122860000D01*
X110446660Y-123160000D01*
X110454890Y-123243565D01*
X110479265Y-123323919D01*
X110518848Y-123397973D01*
X110572118Y-123462882D01*
X110637027Y-123516152D01*
X110711081Y-123555735D01*
X110791435Y-123580110D01*
X110875000Y-123588340D01*
X112525000Y-123588340D01*
X112608565Y-123580110D01*
X112688919Y-123555735D01*
X112723969Y-123537000D01*
X113364119Y-123537000D01*
X113390000Y-123539549D01*
X113415881Y-123537000D01*
X113493310Y-123529374D01*
X113501136Y-123527000D01*
X113561754Y-123527000D01*
X113682889Y-123502905D01*
X113796996Y-123455640D01*
X113899689Y-123387023D01*
X113987023Y-123299689D01*
X114055640Y-123196996D01*
X114102905Y-123082889D01*
X114127000Y-122961754D01*
X114127000Y-122838246D01*
X114102905Y-122717111D01*
X114055640Y-122603004D01*
X113987023Y-122500311D01*
X113899689Y-122412977D01*
X113796996Y-122344360D01*
X113682889Y-122297095D01*
X113561754Y-122273000D01*
X113438246Y-122273000D01*
X113317111Y-122297095D01*
X113240675Y-122328756D01*
X113264502Y-122284180D01*
X113300812Y-122164482D01*
X113313072Y-122040000D01*
X113310000Y-122025750D01*
X113151250Y-121867000D01*
X111827000Y-121867000D01*
X111827000Y-121887000D01*
X111573000Y-121887000D01*
X111573000Y-121867000D01*
X110248750Y-121867000D01*
X110090000Y-122025750D01*
X110086928Y-122040000D01*
X108874728Y-122040000D01*
X109281728Y-121633000D01*
X110274464Y-121633000D01*
X110294941Y-121635017D01*
X110315418Y-121633000D01*
X110315421Y-121633000D01*
X110376687Y-121626966D01*
X110422726Y-121613000D01*
X111573000Y-121613000D01*
X111573000Y-121593000D01*
X111827000Y-121593000D01*
X111827000Y-121613000D01*
X113151250Y-121613000D01*
X113310000Y-121454250D01*
X113313072Y-121440000D01*
X113300812Y-121315518D01*
X113264502Y-121195820D01*
X113205537Y-121085506D01*
X113126185Y-120988815D01*
X113029494Y-120909463D01*
X112919180Y-120850498D01*
X112889896Y-120841615D01*
X112920735Y-120783919D01*
X112945110Y-120703565D01*
X112953340Y-120620000D01*
X112953340Y-120320000D01*
X112945110Y-120236435D01*
X112920735Y-120156081D01*
X112881152Y-120082027D01*
X112827882Y-120017118D01*
X112762973Y-119963848D01*
X112688919Y-119924265D01*
X112608565Y-119899890D01*
X112525000Y-119891660D01*
X111598067Y-119891660D01*
X111711387Y-119778340D01*
X112525000Y-119778340D01*
X112608565Y-119770110D01*
X112688919Y-119745735D01*
X112762973Y-119706152D01*
X112827882Y-119652882D01*
X112881152Y-119587973D01*
X112920735Y-119513919D01*
X112945110Y-119433565D01*
X112953340Y-119350000D01*
X112953340Y-119050000D01*
X112945110Y-118966435D01*
X112920735Y-118886081D01*
X112881152Y-118812027D01*
X112827882Y-118747118D01*
X112762973Y-118693848D01*
X112688919Y-118654265D01*
X112608565Y-118629890D01*
X112525000Y-118621660D01*
X110875000Y-118621660D01*
X110791435Y-118629890D01*
X110711081Y-118654265D01*
X110637027Y-118693848D01*
X110572118Y-118747118D01*
X110518848Y-118812027D01*
X110479265Y-118886081D01*
X110454890Y-118966435D01*
X110446660Y-119050000D01*
X110446660Y-119350000D01*
X110454890Y-119433565D01*
X110479265Y-119513919D01*
X110482319Y-119519632D01*
X110459946Y-119531590D01*
X110438709Y-119549020D01*
X110396450Y-119583700D01*
X110383389Y-119599615D01*
X110154615Y-119828389D01*
X110138700Y-119841450D01*
X110086590Y-119904948D01*
X110047869Y-119977390D01*
X110024024Y-120055995D01*
X110020016Y-120096690D01*
X110015973Y-120137740D01*
X110017990Y-120158217D01*
X110017990Y-120292283D01*
X109943274Y-120367000D01*
X109281728Y-120367000D01*
X108634352Y-119719624D01*
X108621291Y-119703710D01*
X108557794Y-119651600D01*
X108485352Y-119612879D01*
X108406747Y-119589034D01*
X108345481Y-119583000D01*
X108345478Y-119583000D01*
X108325001Y-119580983D01*
X108304524Y-119583000D01*
X107978340Y-119583000D01*
X107978340Y-119450000D01*
X107972992Y-119395699D01*
X107957153Y-119343484D01*
X107931431Y-119295363D01*
X107896816Y-119253184D01*
X107854637Y-119218569D01*
X107806516Y-119192847D01*
X107754301Y-119177008D01*
X107700000Y-119171660D01*
X105200000Y-119171660D01*
X105145699Y-119177008D01*
X105093484Y-119192847D01*
X105045363Y-119218569D01*
X105003184Y-119253184D01*
X104968569Y-119295363D01*
X104942847Y-119343484D01*
X104927008Y-119395699D01*
X104921660Y-119450000D01*
X104050392Y-119450000D01*
X104091731Y-119432877D01*
X104227181Y-119342372D01*
X104342372Y-119227181D01*
X104432877Y-119091731D01*
X104495218Y-118941227D01*
X104527000Y-118781452D01*
X104527000Y-118618548D01*
X104495218Y-118458773D01*
X104432877Y-118308269D01*
X104342372Y-118172819D01*
X104227181Y-118057628D01*
X104215765Y-118050000D01*
X104561928Y-118050000D01*
X104574188Y-118174482D01*
X104610498Y-118294180D01*
X104669463Y-118404494D01*
X104748815Y-118501185D01*
X104845506Y-118580537D01*
X104955820Y-118639502D01*
X105075518Y-118675812D01*
X105200000Y-118688072D01*
X106164250Y-118685000D01*
X106323000Y-118526250D01*
X106323000Y-117627000D01*
X106577000Y-117627000D01*
X106577000Y-118526250D01*
X106735750Y-118685000D01*
X107700000Y-118688072D01*
X107824482Y-118675812D01*
X107944180Y-118639502D01*
X108054494Y-118580537D01*
X108151185Y-118501185D01*
X108230537Y-118404494D01*
X108289502Y-118294180D01*
X108325654Y-118175000D01*
X114561928Y-118175000D01*
X114574188Y-118299482D01*
X114610498Y-118419180D01*
X114669463Y-118529494D01*
X114748815Y-118626185D01*
X114845506Y-118705537D01*
X114955820Y-118764502D01*
X115075518Y-118800812D01*
X115200000Y-118813072D01*
X115364250Y-118810000D01*
X115522998Y-118651252D01*
X115522998Y-118746396D01*
X115522118Y-118747118D01*
X115468848Y-118812027D01*
X115429265Y-118886081D01*
X115404890Y-118966435D01*
X115396660Y-119050000D01*
X115396660Y-119350000D01*
X115404890Y-119433565D01*
X115429265Y-119513919D01*
X115468848Y-119587973D01*
X115522118Y-119652882D01*
X115587027Y-119706152D01*
X115661081Y-119745735D01*
X115741435Y-119770110D01*
X115825000Y-119778340D01*
X117475000Y-119778340D01*
X117558565Y-119770110D01*
X117638919Y-119745735D01*
X117712973Y-119706152D01*
X117777882Y-119652882D01*
X117831152Y-119587973D01*
X117870735Y-119513919D01*
X117895110Y-119433565D01*
X117903340Y-119350000D01*
X117903340Y-119050000D01*
X117895110Y-118966435D01*
X117870735Y-118886081D01*
X117831152Y-118812027D01*
X117777882Y-118747118D01*
X117712973Y-118693848D01*
X117638919Y-118654265D01*
X117558565Y-118629890D01*
X117475000Y-118621660D01*
X117177000Y-118621660D01*
X117177000Y-118468289D01*
X117191949Y-118453340D01*
X117425000Y-118453340D01*
X117523197Y-118443668D01*
X117617620Y-118415026D01*
X117704641Y-118368512D01*
X117780915Y-118305915D01*
X117843512Y-118229641D01*
X117890026Y-118142620D01*
X117918668Y-118048197D01*
X117928340Y-117950000D01*
X117928340Y-117450000D01*
X117918668Y-117351803D01*
X117890026Y-117257380D01*
X117843512Y-117170359D01*
X117780915Y-117094085D01*
X117704641Y-117031488D01*
X117645732Y-117000000D01*
X119346660Y-117000000D01*
X119346660Y-117400000D01*
X119355851Y-117493320D01*
X119383071Y-117583053D01*
X119427275Y-117665751D01*
X119486763Y-117738237D01*
X119559249Y-117797725D01*
X119573000Y-117805075D01*
X119573001Y-117990039D01*
X119567582Y-117992935D01*
X119492254Y-118054754D01*
X119430435Y-118130082D01*
X119384499Y-118216022D01*
X119356211Y-118309273D01*
X119346660Y-118406250D01*
X119346660Y-118843750D01*
X119356211Y-118940727D01*
X119384499Y-119033978D01*
X119430435Y-119119918D01*
X119492254Y-119195246D01*
X119567582Y-119257065D01*
X119653522Y-119303001D01*
X119746773Y-119331289D01*
X119843750Y-119340840D01*
X120356250Y-119340840D01*
X120453227Y-119331289D01*
X120546478Y-119303001D01*
X120632418Y-119257065D01*
X120707746Y-119195246D01*
X120769565Y-119119918D01*
X120815501Y-119033978D01*
X120843789Y-118940727D01*
X120853340Y-118843750D01*
X120853340Y-118406250D01*
X120843789Y-118309273D01*
X120815501Y-118216022D01*
X120769565Y-118130082D01*
X120707746Y-118054754D01*
X120632418Y-117992935D01*
X120627000Y-117990039D01*
X120627000Y-117805075D01*
X120640751Y-117797725D01*
X120713237Y-117738237D01*
X120772725Y-117665751D01*
X120816929Y-117583053D01*
X120844149Y-117493320D01*
X120853340Y-117400000D01*
X120853340Y-117000000D01*
X120844149Y-116906680D01*
X120816929Y-116816947D01*
X120772725Y-116734249D01*
X120713237Y-116661763D01*
X120640751Y-116602275D01*
X120558053Y-116558071D01*
X120468320Y-116530851D01*
X120375000Y-116521660D01*
X119825000Y-116521660D01*
X119731680Y-116530851D01*
X119641947Y-116558071D01*
X119559249Y-116602275D01*
X119486763Y-116661763D01*
X119427275Y-116734249D01*
X119383071Y-116816947D01*
X119355851Y-116906680D01*
X119346660Y-117000000D01*
X117645732Y-117000000D01*
X117617620Y-116984974D01*
X117523197Y-116956332D01*
X117425000Y-116946660D01*
X116975000Y-116946660D01*
X116876803Y-116956332D01*
X116782380Y-116984974D01*
X116703545Y-117027113D01*
X116689502Y-116980820D01*
X116630537Y-116870506D01*
X116551185Y-116773815D01*
X116454494Y-116694463D01*
X116344180Y-116635498D01*
X116224482Y-116599188D01*
X116100000Y-116586928D01*
X115935750Y-116590000D01*
X115777000Y-116748750D01*
X115777000Y-117573000D01*
X115797000Y-117573000D01*
X115797000Y-117827000D01*
X115777000Y-117827000D01*
X115777000Y-117847000D01*
X115523000Y-117847000D01*
X115523000Y-117827000D01*
X114723750Y-117827000D01*
X114565000Y-117985750D01*
X114561928Y-118175000D01*
X108325654Y-118175000D01*
X108325812Y-118174482D01*
X108338072Y-118050000D01*
X108335000Y-117785750D01*
X108176250Y-117627000D01*
X106577000Y-117627000D01*
X106323000Y-117627000D01*
X104723750Y-117627000D01*
X104565000Y-117785750D01*
X104561928Y-118050000D01*
X104215765Y-118050000D01*
X104091731Y-117967123D01*
X103941227Y-117904782D01*
X103781452Y-117873000D01*
X103618548Y-117873000D01*
X103458773Y-117904782D01*
X103308269Y-117967123D01*
X103172819Y-118057628D01*
X103057628Y-118172819D01*
X102967123Y-118308269D01*
X102904782Y-118458773D01*
X102873000Y-118618548D01*
X100902000Y-118618548D01*
X100902000Y-115672588D01*
X101359414Y-115672588D01*
X101387051Y-115789221D01*
X101511564Y-116074983D01*
X101689434Y-116330962D01*
X101913825Y-116547322D01*
X102176114Y-116715748D01*
X102466222Y-116829768D01*
X102773000Y-116885000D01*
X103573000Y-116885000D01*
X103573000Y-115427000D01*
X103827000Y-115427000D01*
X103827000Y-116885000D01*
X104568330Y-116885000D01*
X104561928Y-116950000D01*
X104565000Y-117214250D01*
X104723750Y-117373000D01*
X106323000Y-117373000D01*
X106323000Y-116473750D01*
X106577000Y-116473750D01*
X106577000Y-117373000D01*
X108176250Y-117373000D01*
X108324250Y-117225000D01*
X114561928Y-117225000D01*
X114565000Y-117414250D01*
X114723750Y-117573000D01*
X115523000Y-117573000D01*
X115523000Y-116748750D01*
X115364250Y-116590000D01*
X115200000Y-116586928D01*
X115075518Y-116599188D01*
X114955820Y-116635498D01*
X114845506Y-116694463D01*
X114748815Y-116773815D01*
X114669463Y-116870506D01*
X114610498Y-116980820D01*
X114574188Y-117100518D01*
X114561928Y-117225000D01*
X108324250Y-117225000D01*
X108335000Y-117214250D01*
X108338072Y-116950000D01*
X108325812Y-116825518D01*
X108289502Y-116705820D01*
X108230537Y-116595506D01*
X108151185Y-116498815D01*
X108054494Y-116419463D01*
X107944180Y-116360498D01*
X107824482Y-116324188D01*
X107700000Y-116311928D01*
X106735750Y-116315000D01*
X106577000Y-116473750D01*
X106323000Y-116473750D01*
X106164250Y-116315000D01*
X105722635Y-116313593D01*
X105888436Y-116074983D01*
X106012949Y-115789221D01*
X106040586Y-115672588D01*
X105974943Y-115538246D01*
X118073000Y-115538246D01*
X118073000Y-115661754D01*
X118097095Y-115782889D01*
X118144360Y-115896996D01*
X118212977Y-115999689D01*
X118300311Y-116087023D01*
X118403004Y-116155640D01*
X118517111Y-116202905D01*
X118638246Y-116227000D01*
X118761754Y-116227000D01*
X118882889Y-116202905D01*
X118996996Y-116155640D01*
X119039859Y-116127000D01*
X119533996Y-116127000D01*
X119559249Y-116147725D01*
X119641947Y-116191929D01*
X119731680Y-116219149D01*
X119825000Y-116228340D01*
X120375000Y-116228340D01*
X120468320Y-116219149D01*
X120558053Y-116191929D01*
X120640751Y-116147725D01*
X120713237Y-116088237D01*
X120772725Y-116015751D01*
X120816929Y-115933053D01*
X120844149Y-115843320D01*
X120853340Y-115750000D01*
X120853340Y-115350000D01*
X120844149Y-115256680D01*
X120816929Y-115166947D01*
X120772725Y-115084249D01*
X120713237Y-115011763D01*
X120640751Y-114952275D01*
X120558053Y-114908071D01*
X120468320Y-114880851D01*
X120375000Y-114871660D01*
X119825000Y-114871660D01*
X119731680Y-114880851D01*
X119641947Y-114908071D01*
X119559249Y-114952275D01*
X119486763Y-115011763D01*
X119436507Y-115073000D01*
X119039859Y-115073000D01*
X118996996Y-115044360D01*
X118882889Y-114997095D01*
X118761754Y-114973000D01*
X118638246Y-114973000D01*
X118517111Y-114997095D01*
X118403004Y-115044360D01*
X118300311Y-115112977D01*
X118212977Y-115200311D01*
X118144360Y-115303004D01*
X118097095Y-115417111D01*
X118073000Y-115538246D01*
X105974943Y-115538246D01*
X105920584Y-115427000D01*
X103827000Y-115427000D01*
X103573000Y-115427000D01*
X101479416Y-115427000D01*
X101359414Y-115672588D01*
X100902000Y-115672588D01*
X100902000Y-114927412D01*
X101359414Y-114927412D01*
X101479416Y-115173000D01*
X103573000Y-115173000D01*
X103573000Y-113715000D01*
X103827000Y-113715000D01*
X103827000Y-115173000D01*
X105920584Y-115173000D01*
X106040586Y-114927412D01*
X106012949Y-114810779D01*
X105888436Y-114525017D01*
X105710566Y-114269038D01*
X105486175Y-114052678D01*
X105223886Y-113884252D01*
X104933778Y-113770232D01*
X104627000Y-113715000D01*
X103827000Y-113715000D01*
X103573000Y-113715000D01*
X102773000Y-113715000D01*
X102466222Y-113770232D01*
X102176114Y-113884252D01*
X101913825Y-114052678D01*
X101689434Y-114269038D01*
X101511564Y-114525017D01*
X101387051Y-114810779D01*
X101359414Y-114927412D01*
X100902000Y-114927412D01*
X100902000Y-113481987D01*
X100983130Y-113383130D01*
X101081987Y-113302000D01*
X125118013Y-113302000D01*
X125216870Y-113383130D01*
G37*
%TD.AperFunction*%
%TD*%
M02*
