%TF.GenerationSoftware,KiCad,Pcbnew,(5.1.10)-1*%
%TF.CreationDate,2021-07-14T15:21:13+08:00*%
%TF.ProjectId,usb-ttl,7573622d-7474-46c2-9e6b-696361645f70,rev?*%
%TF.SameCoordinates,Original*%
%TF.FileFunction,Soldermask,Top*%
%TF.FilePolarity,Negative*%
%FSLAX46Y46*%
G04 Gerber Fmt 4.6, Leading zero omitted, Abs format (unit mm)*
G04 Created by KiCad (PCBNEW (5.1.10)-1) date 2021-07-14 15:21:13*
%MOMM*%
%LPD*%
G01*
G04 APERTURE LIST*
%ADD10O,1.800000X1.800000*%
%ADD11C,1.200000*%
%ADD12O,3.600000X2.000000*%
G04 APERTURE END LIST*
%TO.C,U1*%
G36*
G01*
X115625000Y-119375000D02*
X115625000Y-119025000D01*
G75*
G02*
X115800000Y-118850000I175000J0D01*
G01*
X117500000Y-118850000D01*
G75*
G02*
X117675000Y-119025000I0J-175000D01*
G01*
X117675000Y-119375000D01*
G75*
G02*
X117500000Y-119550000I-175000J0D01*
G01*
X115800000Y-119550000D01*
G75*
G02*
X115625000Y-119375000I0J175000D01*
G01*
G37*
G36*
G01*
X115625000Y-120645000D02*
X115625000Y-120295000D01*
G75*
G02*
X115800000Y-120120000I175000J0D01*
G01*
X117500000Y-120120000D01*
G75*
G02*
X117675000Y-120295000I0J-175000D01*
G01*
X117675000Y-120645000D01*
G75*
G02*
X117500000Y-120820000I-175000J0D01*
G01*
X115800000Y-120820000D01*
G75*
G02*
X115625000Y-120645000I0J175000D01*
G01*
G37*
G36*
G01*
X115625000Y-121915000D02*
X115625000Y-121565000D01*
G75*
G02*
X115800000Y-121390000I175000J0D01*
G01*
X117500000Y-121390000D01*
G75*
G02*
X117675000Y-121565000I0J-175000D01*
G01*
X117675000Y-121915000D01*
G75*
G02*
X117500000Y-122090000I-175000J0D01*
G01*
X115800000Y-122090000D01*
G75*
G02*
X115625000Y-121915000I0J175000D01*
G01*
G37*
G36*
G01*
X115625000Y-123185000D02*
X115625000Y-122835000D01*
G75*
G02*
X115800000Y-122660000I175000J0D01*
G01*
X117500000Y-122660000D01*
G75*
G02*
X117675000Y-122835000I0J-175000D01*
G01*
X117675000Y-123185000D01*
G75*
G02*
X117500000Y-123360000I-175000J0D01*
G01*
X115800000Y-123360000D01*
G75*
G02*
X115625000Y-123185000I0J175000D01*
G01*
G37*
G36*
G01*
X110675000Y-123185000D02*
X110675000Y-122835000D01*
G75*
G02*
X110850000Y-122660000I175000J0D01*
G01*
X112550000Y-122660000D01*
G75*
G02*
X112725000Y-122835000I0J-175000D01*
G01*
X112725000Y-123185000D01*
G75*
G02*
X112550000Y-123360000I-175000J0D01*
G01*
X110850000Y-123360000D01*
G75*
G02*
X110675000Y-123185000I0J175000D01*
G01*
G37*
G36*
G01*
X110675000Y-121915000D02*
X110675000Y-121565000D01*
G75*
G02*
X110850000Y-121390000I175000J0D01*
G01*
X112550000Y-121390000D01*
G75*
G02*
X112725000Y-121565000I0J-175000D01*
G01*
X112725000Y-121915000D01*
G75*
G02*
X112550000Y-122090000I-175000J0D01*
G01*
X110850000Y-122090000D01*
G75*
G02*
X110675000Y-121915000I0J175000D01*
G01*
G37*
G36*
G01*
X110675000Y-120645000D02*
X110675000Y-120295000D01*
G75*
G02*
X110850000Y-120120000I175000J0D01*
G01*
X112550000Y-120120000D01*
G75*
G02*
X112725000Y-120295000I0J-175000D01*
G01*
X112725000Y-120645000D01*
G75*
G02*
X112550000Y-120820000I-175000J0D01*
G01*
X110850000Y-120820000D01*
G75*
G02*
X110675000Y-120645000I0J175000D01*
G01*
G37*
G36*
G01*
X110675000Y-119375000D02*
X110675000Y-119025000D01*
G75*
G02*
X110850000Y-118850000I175000J0D01*
G01*
X112550000Y-118850000D01*
G75*
G02*
X112725000Y-119025000I0J-175000D01*
G01*
X112725000Y-119375000D01*
G75*
G02*
X112550000Y-119550000I-175000J0D01*
G01*
X110850000Y-119550000D01*
G75*
G02*
X110675000Y-119375000I0J175000D01*
G01*
G37*
%TD*%
D10*
%TO.C,J2*%
X124200000Y-126080000D03*
X124200000Y-123540000D03*
X124200000Y-121000000D03*
X124200000Y-118460000D03*
G36*
G01*
X123300000Y-116770000D02*
X123300000Y-115070000D01*
G75*
G02*
X123350000Y-115020000I50000J0D01*
G01*
X125050000Y-115020000D01*
G75*
G02*
X125100000Y-115070000I0J-50000D01*
G01*
X125100000Y-116770000D01*
G75*
G02*
X125050000Y-116820000I-50000J0D01*
G01*
X123350000Y-116820000D01*
G75*
G02*
X123300000Y-116770000I0J50000D01*
G01*
G37*
%TD*%
%TO.C,R2*%
G36*
G01*
X119800000Y-116750000D02*
X120400000Y-116750000D01*
G75*
G02*
X120625000Y-116975000I0J-225000D01*
G01*
X120625000Y-117425000D01*
G75*
G02*
X120400000Y-117650000I-225000J0D01*
G01*
X119800000Y-117650000D01*
G75*
G02*
X119575000Y-117425000I0J225000D01*
G01*
X119575000Y-116975000D01*
G75*
G02*
X119800000Y-116750000I225000J0D01*
G01*
G37*
G36*
G01*
X119800000Y-115100000D02*
X120400000Y-115100000D01*
G75*
G02*
X120625000Y-115325000I0J-225000D01*
G01*
X120625000Y-115775000D01*
G75*
G02*
X120400000Y-116000000I-225000J0D01*
G01*
X119800000Y-116000000D01*
G75*
G02*
X119575000Y-115775000I0J225000D01*
G01*
X119575000Y-115325000D01*
G75*
G02*
X119800000Y-115100000I225000J0D01*
G01*
G37*
%TD*%
%TO.C,R1*%
G36*
G01*
X120400000Y-125025000D02*
X119800000Y-125025000D01*
G75*
G02*
X119575000Y-124800000I0J225000D01*
G01*
X119575000Y-124350000D01*
G75*
G02*
X119800000Y-124125000I225000J0D01*
G01*
X120400000Y-124125000D01*
G75*
G02*
X120625000Y-124350000I0J-225000D01*
G01*
X120625000Y-124800000D01*
G75*
G02*
X120400000Y-125025000I-225000J0D01*
G01*
G37*
G36*
G01*
X120400000Y-126675000D02*
X119800000Y-126675000D01*
G75*
G02*
X119575000Y-126450000I0J225000D01*
G01*
X119575000Y-126000000D01*
G75*
G02*
X119800000Y-125775000I225000J0D01*
G01*
X120400000Y-125775000D01*
G75*
G02*
X120625000Y-126000000I0J-225000D01*
G01*
X120625000Y-126450000D01*
G75*
G02*
X120400000Y-126675000I-225000J0D01*
G01*
G37*
%TD*%
D11*
%TO.C,J1*%
X103700000Y-118700000D03*
X103700000Y-123300000D03*
D12*
X103700000Y-115300000D03*
X103700000Y-126700000D03*
G36*
G01*
X107750000Y-116950000D02*
X107750000Y-118050000D01*
G75*
G02*
X107700000Y-118100000I-50000J0D01*
G01*
X105200000Y-118100000D01*
G75*
G02*
X105150000Y-118050000I0J50000D01*
G01*
X105150000Y-116950000D01*
G75*
G02*
X105200000Y-116900000I50000J0D01*
G01*
X107700000Y-116900000D01*
G75*
G02*
X107750000Y-116950000I0J-50000D01*
G01*
G37*
G36*
G01*
X107750000Y-123950000D02*
X107750000Y-125050000D01*
G75*
G02*
X107700000Y-125100000I-50000J0D01*
G01*
X105200000Y-125100000D01*
G75*
G02*
X105150000Y-125050000I0J50000D01*
G01*
X105150000Y-123950000D01*
G75*
G02*
X105200000Y-123900000I50000J0D01*
G01*
X107700000Y-123900000D01*
G75*
G02*
X107750000Y-123950000I0J-50000D01*
G01*
G37*
G36*
G01*
X107750000Y-119450000D02*
X107750000Y-120550000D01*
G75*
G02*
X107700000Y-120600000I-50000J0D01*
G01*
X105200000Y-120600000D01*
G75*
G02*
X105150000Y-120550000I0J50000D01*
G01*
X105150000Y-119450000D01*
G75*
G02*
X105200000Y-119400000I50000J0D01*
G01*
X107700000Y-119400000D01*
G75*
G02*
X107750000Y-119450000I0J-50000D01*
G01*
G37*
G36*
G01*
X107750000Y-121450000D02*
X107750000Y-122550000D01*
G75*
G02*
X107700000Y-122600000I-50000J0D01*
G01*
X105200000Y-122600000D01*
G75*
G02*
X105150000Y-122550000I0J50000D01*
G01*
X105150000Y-121450000D01*
G75*
G02*
X105200000Y-121400000I50000J0D01*
G01*
X107700000Y-121400000D01*
G75*
G02*
X107750000Y-121450000I0J-50000D01*
G01*
G37*
%TD*%
%TO.C,D2*%
G36*
G01*
X120381250Y-119112500D02*
X119818750Y-119112500D01*
G75*
G02*
X119575000Y-118868750I0J243750D01*
G01*
X119575000Y-118381250D01*
G75*
G02*
X119818750Y-118137500I243750J0D01*
G01*
X120381250Y-118137500D01*
G75*
G02*
X120625000Y-118381250I0J-243750D01*
G01*
X120625000Y-118868750D01*
G75*
G02*
X120381250Y-119112500I-243750J0D01*
G01*
G37*
G36*
G01*
X120381250Y-120687500D02*
X119818750Y-120687500D01*
G75*
G02*
X119575000Y-120443750I0J243750D01*
G01*
X119575000Y-119956250D01*
G75*
G02*
X119818750Y-119712500I243750J0D01*
G01*
X120381250Y-119712500D01*
G75*
G02*
X120625000Y-119956250I0J-243750D01*
G01*
X120625000Y-120443750D01*
G75*
G02*
X120381250Y-120687500I-243750J0D01*
G01*
G37*
%TD*%
%TO.C,D1*%
G36*
G01*
X119818750Y-122712500D02*
X120381250Y-122712500D01*
G75*
G02*
X120625000Y-122956250I0J-243750D01*
G01*
X120625000Y-123443750D01*
G75*
G02*
X120381250Y-123687500I-243750J0D01*
G01*
X119818750Y-123687500D01*
G75*
G02*
X119575000Y-123443750I0J243750D01*
G01*
X119575000Y-122956250D01*
G75*
G02*
X119818750Y-122712500I243750J0D01*
G01*
G37*
G36*
G01*
X119818750Y-121137500D02*
X120381250Y-121137500D01*
G75*
G02*
X120625000Y-121381250I0J-243750D01*
G01*
X120625000Y-121868750D01*
G75*
G02*
X120381250Y-122112500I-243750J0D01*
G01*
X119818750Y-122112500D01*
G75*
G02*
X119575000Y-121868750I0J243750D01*
G01*
X119575000Y-121381250D01*
G75*
G02*
X119818750Y-121137500I243750J0D01*
G01*
G37*
%TD*%
%TO.C,C2*%
G36*
G01*
X116150000Y-117425000D02*
X116150000Y-117975000D01*
G75*
G02*
X115900000Y-118225000I-250000J0D01*
G01*
X115400000Y-118225000D01*
G75*
G02*
X115150000Y-117975000I0J250000D01*
G01*
X115150000Y-117425000D01*
G75*
G02*
X115400000Y-117175000I250000J0D01*
G01*
X115900000Y-117175000D01*
G75*
G02*
X116150000Y-117425000I0J-250000D01*
G01*
G37*
G36*
G01*
X117700000Y-117425000D02*
X117700000Y-117975000D01*
G75*
G02*
X117450000Y-118225000I-250000J0D01*
G01*
X116950000Y-118225000D01*
G75*
G02*
X116700000Y-117975000I0J250000D01*
G01*
X116700000Y-117425000D01*
G75*
G02*
X116950000Y-117175000I250000J0D01*
G01*
X117450000Y-117175000D01*
G75*
G02*
X117700000Y-117425000I0J-250000D01*
G01*
G37*
%TD*%
%TO.C,C1*%
G36*
G01*
X116100000Y-124325000D02*
X116100000Y-124875000D01*
G75*
G02*
X115850000Y-125125000I-250000J0D01*
G01*
X115350000Y-125125000D01*
G75*
G02*
X115100000Y-124875000I0J250000D01*
G01*
X115100000Y-124325000D01*
G75*
G02*
X115350000Y-124075000I250000J0D01*
G01*
X115850000Y-124075000D01*
G75*
G02*
X116100000Y-124325000I0J-250000D01*
G01*
G37*
G36*
G01*
X117650000Y-124325000D02*
X117650000Y-124875000D01*
G75*
G02*
X117400000Y-125125000I-250000J0D01*
G01*
X116900000Y-125125000D01*
G75*
G02*
X116650000Y-124875000I0J250000D01*
G01*
X116650000Y-124325000D01*
G75*
G02*
X116900000Y-124075000I250000J0D01*
G01*
X117400000Y-124075000D01*
G75*
G02*
X117650000Y-124325000I0J-250000D01*
G01*
G37*
%TD*%
M02*
