%TF.GenerationSoftware,KiCad,Pcbnew,(5.1.10)-1*%
%TF.CreationDate,2021-07-14T15:21:13+08:00*%
%TF.ProjectId,usb-ttl,7573622d-7474-46c2-9e6b-696361645f70,rev?*%
%TF.SameCoordinates,Original*%
%TF.FileFunction,Copper,L2,Bot*%
%TF.FilePolarity,Positive*%
%FSLAX46Y46*%
G04 Gerber Fmt 4.6, Leading zero omitted, Abs format (unit mm)*
G04 Created by KiCad (PCBNEW (5.1.10)-1) date 2021-07-14 15:21:13*
%MOMM*%
%LPD*%
G01*
G04 APERTURE LIST*
%TA.AperFunction,ComponentPad*%
%ADD10O,1.700000X1.700000*%
%TD*%
%TA.AperFunction,ComponentPad*%
%ADD11R,1.700000X1.700000*%
%TD*%
%TA.AperFunction,ComponentPad*%
%ADD12O,3.500000X1.900000*%
%TD*%
%TA.AperFunction,ViaPad*%
%ADD13C,0.700000*%
%TD*%
%TA.AperFunction,Conductor*%
%ADD14C,0.500000*%
%TD*%
%TA.AperFunction,Conductor*%
%ADD15C,0.254000*%
%TD*%
%TA.AperFunction,Conductor*%
%ADD16C,0.100000*%
%TD*%
G04 APERTURE END LIST*
D10*
%TO.P,J2,5*%
%TO.N,+5V*%
X124200000Y-126080000D03*
%TO.P,J2,4*%
%TO.N,/TXD*%
X124200000Y-123540000D03*
%TO.P,J2,3*%
%TO.N,/RXD*%
X124200000Y-121000000D03*
%TO.P,J2,2*%
%TO.N,GND*%
X124200000Y-118460000D03*
D11*
%TO.P,J2,1*%
%TO.N,/RTS*%
X124200000Y-115920000D03*
%TD*%
D12*
%TO.P,J1,5*%
%TO.N,GND*%
X103700000Y-115300000D03*
X103700000Y-126700000D03*
%TD*%
D13*
%TO.N,+5V*%
X115000000Y-122150000D03*
X118700000Y-115600000D03*
%TO.N,/RTS*%
X113500000Y-122900000D03*
X122600000Y-116000000D03*
%TD*%
D14*
%TO.N,+5V*%
X118700000Y-120680748D02*
X118700000Y-115600000D01*
X117230748Y-122150000D02*
X118700000Y-120680748D01*
X115000000Y-122150000D02*
X117230748Y-122150000D01*
%TO.N,/RTS*%
X115459992Y-122800010D02*
X117499990Y-122800010D01*
X119350010Y-120949990D02*
X119350010Y-118149990D01*
X117499990Y-122800010D02*
X119350010Y-120949990D01*
X115360001Y-122900001D02*
X115459992Y-122800010D01*
X114639999Y-122900001D02*
X115360001Y-122900001D01*
X114619999Y-122880001D02*
X114639999Y-122900001D01*
X114600000Y-122900000D02*
X114619999Y-122880001D01*
X113500000Y-122900000D02*
X114600000Y-122900000D01*
X119350010Y-118149990D02*
X120450010Y-118149990D01*
X120450010Y-118149990D02*
X122600000Y-116000000D01*
%TD*%
D15*
%TO.N,GND*%
X125216870Y-113383130D02*
X125298001Y-113481988D01*
X125298001Y-114946362D01*
X125281431Y-114915363D01*
X125246816Y-114873184D01*
X125204637Y-114838569D01*
X125156516Y-114812847D01*
X125104301Y-114797008D01*
X125050000Y-114791660D01*
X123350000Y-114791660D01*
X123295699Y-114797008D01*
X123243484Y-114812847D01*
X123195363Y-114838569D01*
X123153184Y-114873184D01*
X123118569Y-114915363D01*
X123092847Y-114963484D01*
X123077008Y-115015699D01*
X123071660Y-115070000D01*
X123071660Y-115584948D01*
X122999689Y-115512977D01*
X122896996Y-115444360D01*
X122782889Y-115397095D01*
X122661754Y-115373000D01*
X122538246Y-115373000D01*
X122417111Y-115397095D01*
X122303004Y-115444360D01*
X122200311Y-115512977D01*
X122112977Y-115600311D01*
X122044360Y-115703004D01*
X121997095Y-115817111D01*
X121987038Y-115867672D01*
X120231721Y-117622990D01*
X119375891Y-117622990D01*
X119350010Y-117620441D01*
X119324129Y-117622990D01*
X119246700Y-117630616D01*
X119227000Y-117636592D01*
X119227000Y-115939859D01*
X119255640Y-115896996D01*
X119302905Y-115782889D01*
X119327000Y-115661754D01*
X119327000Y-115538246D01*
X119302905Y-115417111D01*
X119255640Y-115303004D01*
X119187023Y-115200311D01*
X119099689Y-115112977D01*
X118996996Y-115044360D01*
X118882889Y-114997095D01*
X118761754Y-114973000D01*
X118638246Y-114973000D01*
X118517111Y-114997095D01*
X118403004Y-115044360D01*
X118300311Y-115112977D01*
X118212977Y-115200311D01*
X118144360Y-115303004D01*
X118097095Y-115417111D01*
X118073000Y-115538246D01*
X118073000Y-115661754D01*
X118097095Y-115782889D01*
X118144360Y-115896996D01*
X118173001Y-115939860D01*
X118173000Y-120462458D01*
X117012459Y-121623000D01*
X115339859Y-121623000D01*
X115296996Y-121594360D01*
X115182889Y-121547095D01*
X115061754Y-121523000D01*
X114938246Y-121523000D01*
X114817111Y-121547095D01*
X114703004Y-121594360D01*
X114600311Y-121662977D01*
X114512977Y-121750311D01*
X114444360Y-121853004D01*
X114397095Y-121967111D01*
X114373000Y-122088246D01*
X114373000Y-122211754D01*
X114397095Y-122332889D01*
X114413710Y-122373000D01*
X113839859Y-122373000D01*
X113796996Y-122344360D01*
X113682889Y-122297095D01*
X113561754Y-122273000D01*
X113438246Y-122273000D01*
X113317111Y-122297095D01*
X113203004Y-122344360D01*
X113100311Y-122412977D01*
X113012977Y-122500311D01*
X112944360Y-122603004D01*
X112897095Y-122717111D01*
X112873000Y-122838246D01*
X112873000Y-122961754D01*
X112897095Y-123082889D01*
X112944360Y-123196996D01*
X113012977Y-123299689D01*
X113100311Y-123387023D01*
X113203004Y-123455640D01*
X113317111Y-123502905D01*
X113438246Y-123527000D01*
X113561754Y-123527000D01*
X113682889Y-123502905D01*
X113796996Y-123455640D01*
X113839859Y-123427000D01*
X114574119Y-123427000D01*
X114600000Y-123429549D01*
X114619995Y-123427580D01*
X114639998Y-123429550D01*
X114665876Y-123427001D01*
X115334120Y-123427001D01*
X115360001Y-123429550D01*
X115385882Y-123427001D01*
X115463311Y-123419375D01*
X115562651Y-123389240D01*
X115654203Y-123340305D01*
X115670403Y-123327010D01*
X117474109Y-123327010D01*
X117499990Y-123329559D01*
X117525871Y-123327010D01*
X117603300Y-123319384D01*
X117702640Y-123289249D01*
X117794192Y-123240314D01*
X117874438Y-123174458D01*
X117890945Y-123154344D01*
X119704349Y-121340941D01*
X119724458Y-121324438D01*
X119790314Y-121244192D01*
X119839249Y-121152640D01*
X119869384Y-121053300D01*
X119877010Y-120975871D01*
X119877010Y-120975869D01*
X119879559Y-120949991D01*
X119877010Y-120924113D01*
X119877010Y-118676990D01*
X120424129Y-118676990D01*
X120450010Y-118679539D01*
X120475891Y-118676990D01*
X120553320Y-118669364D01*
X120652660Y-118639229D01*
X120744212Y-118590294D01*
X120824458Y-118524438D01*
X120840965Y-118504324D01*
X122732328Y-116612962D01*
X122782889Y-116602905D01*
X122896996Y-116555640D01*
X122999689Y-116487023D01*
X123071660Y-116415052D01*
X123071660Y-116770000D01*
X123077008Y-116824301D01*
X123092847Y-116876516D01*
X123118569Y-116924637D01*
X123153184Y-116966816D01*
X123195363Y-117001431D01*
X123243484Y-117027153D01*
X123295699Y-117042992D01*
X123350000Y-117048340D01*
X123759042Y-117048340D01*
X123568748Y-117115843D01*
X123318645Y-117264822D01*
X123102412Y-117459731D01*
X122928359Y-117693080D01*
X122803175Y-117955901D01*
X122758524Y-118103110D01*
X122879845Y-118333000D01*
X124073000Y-118333000D01*
X124073000Y-118313000D01*
X124327000Y-118313000D01*
X124327000Y-118333000D01*
X124347000Y-118333000D01*
X124347000Y-118587000D01*
X124327000Y-118587000D01*
X124327000Y-118607000D01*
X124073000Y-118607000D01*
X124073000Y-118587000D01*
X122879845Y-118587000D01*
X122758524Y-118816890D01*
X122803175Y-118964099D01*
X122928359Y-119226920D01*
X123102412Y-119460269D01*
X123318645Y-119655178D01*
X123568748Y-119804157D01*
X123843109Y-119901481D01*
X124072998Y-119780815D01*
X124072998Y-119876183D01*
X123871266Y-119916310D01*
X123666165Y-120001266D01*
X123481579Y-120124602D01*
X123324602Y-120281579D01*
X123201266Y-120466165D01*
X123116310Y-120671266D01*
X123073000Y-120889000D01*
X123073000Y-121111000D01*
X123116310Y-121328734D01*
X123201266Y-121533835D01*
X123324602Y-121718421D01*
X123481579Y-121875398D01*
X123666165Y-121998734D01*
X123871266Y-122083690D01*
X124089000Y-122127000D01*
X124311000Y-122127000D01*
X124528734Y-122083690D01*
X124733835Y-121998734D01*
X124918421Y-121875398D01*
X125075398Y-121718421D01*
X125198734Y-121533835D01*
X125283690Y-121328734D01*
X125298000Y-121256790D01*
X125298000Y-123283209D01*
X125283690Y-123211266D01*
X125198734Y-123006165D01*
X125075398Y-122821579D01*
X124918421Y-122664602D01*
X124733835Y-122541266D01*
X124528734Y-122456310D01*
X124311000Y-122413000D01*
X124089000Y-122413000D01*
X123871266Y-122456310D01*
X123666165Y-122541266D01*
X123481579Y-122664602D01*
X123324602Y-122821579D01*
X123201266Y-123006165D01*
X123116310Y-123211266D01*
X123073000Y-123429000D01*
X123073000Y-123651000D01*
X123116310Y-123868734D01*
X123201266Y-124073835D01*
X123324602Y-124258421D01*
X123481579Y-124415398D01*
X123666165Y-124538734D01*
X123871266Y-124623690D01*
X124089000Y-124667000D01*
X124311000Y-124667000D01*
X124528734Y-124623690D01*
X124733835Y-124538734D01*
X124918421Y-124415398D01*
X125075398Y-124258421D01*
X125198734Y-124073835D01*
X125283690Y-123868734D01*
X125298000Y-123796791D01*
X125298000Y-125823208D01*
X125283690Y-125751266D01*
X125198734Y-125546165D01*
X125075398Y-125361579D01*
X124918421Y-125204602D01*
X124733835Y-125081266D01*
X124528734Y-124996310D01*
X124311000Y-124953000D01*
X124089000Y-124953000D01*
X123871266Y-124996310D01*
X123666165Y-125081266D01*
X123481579Y-125204602D01*
X123324602Y-125361579D01*
X123201266Y-125546165D01*
X123116310Y-125751266D01*
X123073000Y-125969000D01*
X123073000Y-126191000D01*
X123116310Y-126408734D01*
X123201266Y-126613835D01*
X123324602Y-126798421D01*
X123481579Y-126955398D01*
X123666165Y-127078734D01*
X123871266Y-127163690D01*
X124089000Y-127207000D01*
X124311000Y-127207000D01*
X124528734Y-127163690D01*
X124733835Y-127078734D01*
X124918421Y-126955398D01*
X125075398Y-126798421D01*
X125198734Y-126613835D01*
X125283690Y-126408734D01*
X125298000Y-126336792D01*
X125298000Y-128518013D01*
X125216870Y-128616870D01*
X125118013Y-128698000D01*
X101081987Y-128698000D01*
X100983130Y-128616870D01*
X100902000Y-128518013D01*
X100902000Y-127072588D01*
X101359414Y-127072588D01*
X101387051Y-127189221D01*
X101511564Y-127474983D01*
X101689434Y-127730962D01*
X101913825Y-127947322D01*
X102176114Y-128115748D01*
X102466222Y-128229768D01*
X102773000Y-128285000D01*
X103573000Y-128285000D01*
X103573000Y-126827000D01*
X103827000Y-126827000D01*
X103827000Y-128285000D01*
X104627000Y-128285000D01*
X104933778Y-128229768D01*
X105223886Y-128115748D01*
X105486175Y-127947322D01*
X105710566Y-127730962D01*
X105888436Y-127474983D01*
X106012949Y-127189221D01*
X106040586Y-127072588D01*
X105920584Y-126827000D01*
X103827000Y-126827000D01*
X103573000Y-126827000D01*
X101479416Y-126827000D01*
X101359414Y-127072588D01*
X100902000Y-127072588D01*
X100902000Y-126327412D01*
X101359414Y-126327412D01*
X101479416Y-126573000D01*
X103573000Y-126573000D01*
X103573000Y-125115000D01*
X103827000Y-125115000D01*
X103827000Y-126573000D01*
X105920584Y-126573000D01*
X106040586Y-126327412D01*
X106012949Y-126210779D01*
X105888436Y-125925017D01*
X105710566Y-125669038D01*
X105486175Y-125452678D01*
X105223886Y-125284252D01*
X104933778Y-125170232D01*
X104627000Y-125115000D01*
X103827000Y-125115000D01*
X103573000Y-125115000D01*
X102773000Y-125115000D01*
X102466222Y-125170232D01*
X102176114Y-125284252D01*
X101913825Y-125452678D01*
X101689434Y-125669038D01*
X101511564Y-125925017D01*
X101387051Y-126210779D01*
X101359414Y-126327412D01*
X100902000Y-126327412D01*
X100902000Y-123218548D01*
X102873000Y-123218548D01*
X102873000Y-123381452D01*
X102904782Y-123541227D01*
X102967123Y-123691731D01*
X103057628Y-123827181D01*
X103172819Y-123942372D01*
X103308269Y-124032877D01*
X103458773Y-124095218D01*
X103618548Y-124127000D01*
X103781452Y-124127000D01*
X103941227Y-124095218D01*
X104091731Y-124032877D01*
X104227181Y-123942372D01*
X104342372Y-123827181D01*
X104432877Y-123691731D01*
X104495218Y-123541227D01*
X104527000Y-123381452D01*
X104527000Y-123218548D01*
X104495218Y-123058773D01*
X104432877Y-122908269D01*
X104342372Y-122772819D01*
X104227181Y-122657628D01*
X104091731Y-122567123D01*
X103941227Y-122504782D01*
X103781452Y-122473000D01*
X103618548Y-122473000D01*
X103458773Y-122504782D01*
X103308269Y-122567123D01*
X103172819Y-122657628D01*
X103057628Y-122772819D01*
X102967123Y-122908269D01*
X102904782Y-123058773D01*
X102873000Y-123218548D01*
X100902000Y-123218548D01*
X100902000Y-118618548D01*
X102873000Y-118618548D01*
X102873000Y-118781452D01*
X102904782Y-118941227D01*
X102967123Y-119091731D01*
X103057628Y-119227181D01*
X103172819Y-119342372D01*
X103308269Y-119432877D01*
X103458773Y-119495218D01*
X103618548Y-119527000D01*
X103781452Y-119527000D01*
X103941227Y-119495218D01*
X104091731Y-119432877D01*
X104227181Y-119342372D01*
X104342372Y-119227181D01*
X104432877Y-119091731D01*
X104495218Y-118941227D01*
X104527000Y-118781452D01*
X104527000Y-118618548D01*
X104495218Y-118458773D01*
X104432877Y-118308269D01*
X104342372Y-118172819D01*
X104227181Y-118057628D01*
X104091731Y-117967123D01*
X103941227Y-117904782D01*
X103781452Y-117873000D01*
X103618548Y-117873000D01*
X103458773Y-117904782D01*
X103308269Y-117967123D01*
X103172819Y-118057628D01*
X103057628Y-118172819D01*
X102967123Y-118308269D01*
X102904782Y-118458773D01*
X102873000Y-118618548D01*
X100902000Y-118618548D01*
X100902000Y-115672588D01*
X101359414Y-115672588D01*
X101387051Y-115789221D01*
X101511564Y-116074983D01*
X101689434Y-116330962D01*
X101913825Y-116547322D01*
X102176114Y-116715748D01*
X102466222Y-116829768D01*
X102773000Y-116885000D01*
X103573000Y-116885000D01*
X103573000Y-115427000D01*
X103827000Y-115427000D01*
X103827000Y-116885000D01*
X104627000Y-116885000D01*
X104933778Y-116829768D01*
X105223886Y-116715748D01*
X105486175Y-116547322D01*
X105710566Y-116330962D01*
X105888436Y-116074983D01*
X106012949Y-115789221D01*
X106040586Y-115672588D01*
X105920584Y-115427000D01*
X103827000Y-115427000D01*
X103573000Y-115427000D01*
X101479416Y-115427000D01*
X101359414Y-115672588D01*
X100902000Y-115672588D01*
X100902000Y-114927412D01*
X101359414Y-114927412D01*
X101479416Y-115173000D01*
X103573000Y-115173000D01*
X103573000Y-113715000D01*
X103827000Y-113715000D01*
X103827000Y-115173000D01*
X105920584Y-115173000D01*
X106040586Y-114927412D01*
X106012949Y-114810779D01*
X105888436Y-114525017D01*
X105710566Y-114269038D01*
X105486175Y-114052678D01*
X105223886Y-113884252D01*
X104933778Y-113770232D01*
X104627000Y-113715000D01*
X103827000Y-113715000D01*
X103573000Y-113715000D01*
X102773000Y-113715000D01*
X102466222Y-113770232D01*
X102176114Y-113884252D01*
X101913825Y-114052678D01*
X101689434Y-114269038D01*
X101511564Y-114525017D01*
X101387051Y-114810779D01*
X101359414Y-114927412D01*
X100902000Y-114927412D01*
X100902000Y-113481987D01*
X100983130Y-113383130D01*
X101081987Y-113302000D01*
X125118013Y-113302000D01*
X125216870Y-113383130D01*
%TA.AperFunction,Conductor*%
D16*
G36*
X125216870Y-113383130D02*
G01*
X125298001Y-113481988D01*
X125298001Y-114946362D01*
X125281431Y-114915363D01*
X125246816Y-114873184D01*
X125204637Y-114838569D01*
X125156516Y-114812847D01*
X125104301Y-114797008D01*
X125050000Y-114791660D01*
X123350000Y-114791660D01*
X123295699Y-114797008D01*
X123243484Y-114812847D01*
X123195363Y-114838569D01*
X123153184Y-114873184D01*
X123118569Y-114915363D01*
X123092847Y-114963484D01*
X123077008Y-115015699D01*
X123071660Y-115070000D01*
X123071660Y-115584948D01*
X122999689Y-115512977D01*
X122896996Y-115444360D01*
X122782889Y-115397095D01*
X122661754Y-115373000D01*
X122538246Y-115373000D01*
X122417111Y-115397095D01*
X122303004Y-115444360D01*
X122200311Y-115512977D01*
X122112977Y-115600311D01*
X122044360Y-115703004D01*
X121997095Y-115817111D01*
X121987038Y-115867672D01*
X120231721Y-117622990D01*
X119375891Y-117622990D01*
X119350010Y-117620441D01*
X119324129Y-117622990D01*
X119246700Y-117630616D01*
X119227000Y-117636592D01*
X119227000Y-115939859D01*
X119255640Y-115896996D01*
X119302905Y-115782889D01*
X119327000Y-115661754D01*
X119327000Y-115538246D01*
X119302905Y-115417111D01*
X119255640Y-115303004D01*
X119187023Y-115200311D01*
X119099689Y-115112977D01*
X118996996Y-115044360D01*
X118882889Y-114997095D01*
X118761754Y-114973000D01*
X118638246Y-114973000D01*
X118517111Y-114997095D01*
X118403004Y-115044360D01*
X118300311Y-115112977D01*
X118212977Y-115200311D01*
X118144360Y-115303004D01*
X118097095Y-115417111D01*
X118073000Y-115538246D01*
X118073000Y-115661754D01*
X118097095Y-115782889D01*
X118144360Y-115896996D01*
X118173001Y-115939860D01*
X118173000Y-120462458D01*
X117012459Y-121623000D01*
X115339859Y-121623000D01*
X115296996Y-121594360D01*
X115182889Y-121547095D01*
X115061754Y-121523000D01*
X114938246Y-121523000D01*
X114817111Y-121547095D01*
X114703004Y-121594360D01*
X114600311Y-121662977D01*
X114512977Y-121750311D01*
X114444360Y-121853004D01*
X114397095Y-121967111D01*
X114373000Y-122088246D01*
X114373000Y-122211754D01*
X114397095Y-122332889D01*
X114413710Y-122373000D01*
X113839859Y-122373000D01*
X113796996Y-122344360D01*
X113682889Y-122297095D01*
X113561754Y-122273000D01*
X113438246Y-122273000D01*
X113317111Y-122297095D01*
X113203004Y-122344360D01*
X113100311Y-122412977D01*
X113012977Y-122500311D01*
X112944360Y-122603004D01*
X112897095Y-122717111D01*
X112873000Y-122838246D01*
X112873000Y-122961754D01*
X112897095Y-123082889D01*
X112944360Y-123196996D01*
X113012977Y-123299689D01*
X113100311Y-123387023D01*
X113203004Y-123455640D01*
X113317111Y-123502905D01*
X113438246Y-123527000D01*
X113561754Y-123527000D01*
X113682889Y-123502905D01*
X113796996Y-123455640D01*
X113839859Y-123427000D01*
X114574119Y-123427000D01*
X114600000Y-123429549D01*
X114619995Y-123427580D01*
X114639998Y-123429550D01*
X114665876Y-123427001D01*
X115334120Y-123427001D01*
X115360001Y-123429550D01*
X115385882Y-123427001D01*
X115463311Y-123419375D01*
X115562651Y-123389240D01*
X115654203Y-123340305D01*
X115670403Y-123327010D01*
X117474109Y-123327010D01*
X117499990Y-123329559D01*
X117525871Y-123327010D01*
X117603300Y-123319384D01*
X117702640Y-123289249D01*
X117794192Y-123240314D01*
X117874438Y-123174458D01*
X117890945Y-123154344D01*
X119704349Y-121340941D01*
X119724458Y-121324438D01*
X119790314Y-121244192D01*
X119839249Y-121152640D01*
X119869384Y-121053300D01*
X119877010Y-120975871D01*
X119877010Y-120975869D01*
X119879559Y-120949991D01*
X119877010Y-120924113D01*
X119877010Y-118676990D01*
X120424129Y-118676990D01*
X120450010Y-118679539D01*
X120475891Y-118676990D01*
X120553320Y-118669364D01*
X120652660Y-118639229D01*
X120744212Y-118590294D01*
X120824458Y-118524438D01*
X120840965Y-118504324D01*
X122732328Y-116612962D01*
X122782889Y-116602905D01*
X122896996Y-116555640D01*
X122999689Y-116487023D01*
X123071660Y-116415052D01*
X123071660Y-116770000D01*
X123077008Y-116824301D01*
X123092847Y-116876516D01*
X123118569Y-116924637D01*
X123153184Y-116966816D01*
X123195363Y-117001431D01*
X123243484Y-117027153D01*
X123295699Y-117042992D01*
X123350000Y-117048340D01*
X123759042Y-117048340D01*
X123568748Y-117115843D01*
X123318645Y-117264822D01*
X123102412Y-117459731D01*
X122928359Y-117693080D01*
X122803175Y-117955901D01*
X122758524Y-118103110D01*
X122879845Y-118333000D01*
X124073000Y-118333000D01*
X124073000Y-118313000D01*
X124327000Y-118313000D01*
X124327000Y-118333000D01*
X124347000Y-118333000D01*
X124347000Y-118587000D01*
X124327000Y-118587000D01*
X124327000Y-118607000D01*
X124073000Y-118607000D01*
X124073000Y-118587000D01*
X122879845Y-118587000D01*
X122758524Y-118816890D01*
X122803175Y-118964099D01*
X122928359Y-119226920D01*
X123102412Y-119460269D01*
X123318645Y-119655178D01*
X123568748Y-119804157D01*
X123843109Y-119901481D01*
X124072998Y-119780815D01*
X124072998Y-119876183D01*
X123871266Y-119916310D01*
X123666165Y-120001266D01*
X123481579Y-120124602D01*
X123324602Y-120281579D01*
X123201266Y-120466165D01*
X123116310Y-120671266D01*
X123073000Y-120889000D01*
X123073000Y-121111000D01*
X123116310Y-121328734D01*
X123201266Y-121533835D01*
X123324602Y-121718421D01*
X123481579Y-121875398D01*
X123666165Y-121998734D01*
X123871266Y-122083690D01*
X124089000Y-122127000D01*
X124311000Y-122127000D01*
X124528734Y-122083690D01*
X124733835Y-121998734D01*
X124918421Y-121875398D01*
X125075398Y-121718421D01*
X125198734Y-121533835D01*
X125283690Y-121328734D01*
X125298000Y-121256790D01*
X125298000Y-123283209D01*
X125283690Y-123211266D01*
X125198734Y-123006165D01*
X125075398Y-122821579D01*
X124918421Y-122664602D01*
X124733835Y-122541266D01*
X124528734Y-122456310D01*
X124311000Y-122413000D01*
X124089000Y-122413000D01*
X123871266Y-122456310D01*
X123666165Y-122541266D01*
X123481579Y-122664602D01*
X123324602Y-122821579D01*
X123201266Y-123006165D01*
X123116310Y-123211266D01*
X123073000Y-123429000D01*
X123073000Y-123651000D01*
X123116310Y-123868734D01*
X123201266Y-124073835D01*
X123324602Y-124258421D01*
X123481579Y-124415398D01*
X123666165Y-124538734D01*
X123871266Y-124623690D01*
X124089000Y-124667000D01*
X124311000Y-124667000D01*
X124528734Y-124623690D01*
X124733835Y-124538734D01*
X124918421Y-124415398D01*
X125075398Y-124258421D01*
X125198734Y-124073835D01*
X125283690Y-123868734D01*
X125298000Y-123796791D01*
X125298000Y-125823208D01*
X125283690Y-125751266D01*
X125198734Y-125546165D01*
X125075398Y-125361579D01*
X124918421Y-125204602D01*
X124733835Y-125081266D01*
X124528734Y-124996310D01*
X124311000Y-124953000D01*
X124089000Y-124953000D01*
X123871266Y-124996310D01*
X123666165Y-125081266D01*
X123481579Y-125204602D01*
X123324602Y-125361579D01*
X123201266Y-125546165D01*
X123116310Y-125751266D01*
X123073000Y-125969000D01*
X123073000Y-126191000D01*
X123116310Y-126408734D01*
X123201266Y-126613835D01*
X123324602Y-126798421D01*
X123481579Y-126955398D01*
X123666165Y-127078734D01*
X123871266Y-127163690D01*
X124089000Y-127207000D01*
X124311000Y-127207000D01*
X124528734Y-127163690D01*
X124733835Y-127078734D01*
X124918421Y-126955398D01*
X125075398Y-126798421D01*
X125198734Y-126613835D01*
X125283690Y-126408734D01*
X125298000Y-126336792D01*
X125298000Y-128518013D01*
X125216870Y-128616870D01*
X125118013Y-128698000D01*
X101081987Y-128698000D01*
X100983130Y-128616870D01*
X100902000Y-128518013D01*
X100902000Y-127072588D01*
X101359414Y-127072588D01*
X101387051Y-127189221D01*
X101511564Y-127474983D01*
X101689434Y-127730962D01*
X101913825Y-127947322D01*
X102176114Y-128115748D01*
X102466222Y-128229768D01*
X102773000Y-128285000D01*
X103573000Y-128285000D01*
X103573000Y-126827000D01*
X103827000Y-126827000D01*
X103827000Y-128285000D01*
X104627000Y-128285000D01*
X104933778Y-128229768D01*
X105223886Y-128115748D01*
X105486175Y-127947322D01*
X105710566Y-127730962D01*
X105888436Y-127474983D01*
X106012949Y-127189221D01*
X106040586Y-127072588D01*
X105920584Y-126827000D01*
X103827000Y-126827000D01*
X103573000Y-126827000D01*
X101479416Y-126827000D01*
X101359414Y-127072588D01*
X100902000Y-127072588D01*
X100902000Y-126327412D01*
X101359414Y-126327412D01*
X101479416Y-126573000D01*
X103573000Y-126573000D01*
X103573000Y-125115000D01*
X103827000Y-125115000D01*
X103827000Y-126573000D01*
X105920584Y-126573000D01*
X106040586Y-126327412D01*
X106012949Y-126210779D01*
X105888436Y-125925017D01*
X105710566Y-125669038D01*
X105486175Y-125452678D01*
X105223886Y-125284252D01*
X104933778Y-125170232D01*
X104627000Y-125115000D01*
X103827000Y-125115000D01*
X103573000Y-125115000D01*
X102773000Y-125115000D01*
X102466222Y-125170232D01*
X102176114Y-125284252D01*
X101913825Y-125452678D01*
X101689434Y-125669038D01*
X101511564Y-125925017D01*
X101387051Y-126210779D01*
X101359414Y-126327412D01*
X100902000Y-126327412D01*
X100902000Y-123218548D01*
X102873000Y-123218548D01*
X102873000Y-123381452D01*
X102904782Y-123541227D01*
X102967123Y-123691731D01*
X103057628Y-123827181D01*
X103172819Y-123942372D01*
X103308269Y-124032877D01*
X103458773Y-124095218D01*
X103618548Y-124127000D01*
X103781452Y-124127000D01*
X103941227Y-124095218D01*
X104091731Y-124032877D01*
X104227181Y-123942372D01*
X104342372Y-123827181D01*
X104432877Y-123691731D01*
X104495218Y-123541227D01*
X104527000Y-123381452D01*
X104527000Y-123218548D01*
X104495218Y-123058773D01*
X104432877Y-122908269D01*
X104342372Y-122772819D01*
X104227181Y-122657628D01*
X104091731Y-122567123D01*
X103941227Y-122504782D01*
X103781452Y-122473000D01*
X103618548Y-122473000D01*
X103458773Y-122504782D01*
X103308269Y-122567123D01*
X103172819Y-122657628D01*
X103057628Y-122772819D01*
X102967123Y-122908269D01*
X102904782Y-123058773D01*
X102873000Y-123218548D01*
X100902000Y-123218548D01*
X100902000Y-118618548D01*
X102873000Y-118618548D01*
X102873000Y-118781452D01*
X102904782Y-118941227D01*
X102967123Y-119091731D01*
X103057628Y-119227181D01*
X103172819Y-119342372D01*
X103308269Y-119432877D01*
X103458773Y-119495218D01*
X103618548Y-119527000D01*
X103781452Y-119527000D01*
X103941227Y-119495218D01*
X104091731Y-119432877D01*
X104227181Y-119342372D01*
X104342372Y-119227181D01*
X104432877Y-119091731D01*
X104495218Y-118941227D01*
X104527000Y-118781452D01*
X104527000Y-118618548D01*
X104495218Y-118458773D01*
X104432877Y-118308269D01*
X104342372Y-118172819D01*
X104227181Y-118057628D01*
X104091731Y-117967123D01*
X103941227Y-117904782D01*
X103781452Y-117873000D01*
X103618548Y-117873000D01*
X103458773Y-117904782D01*
X103308269Y-117967123D01*
X103172819Y-118057628D01*
X103057628Y-118172819D01*
X102967123Y-118308269D01*
X102904782Y-118458773D01*
X102873000Y-118618548D01*
X100902000Y-118618548D01*
X100902000Y-115672588D01*
X101359414Y-115672588D01*
X101387051Y-115789221D01*
X101511564Y-116074983D01*
X101689434Y-116330962D01*
X101913825Y-116547322D01*
X102176114Y-116715748D01*
X102466222Y-116829768D01*
X102773000Y-116885000D01*
X103573000Y-116885000D01*
X103573000Y-115427000D01*
X103827000Y-115427000D01*
X103827000Y-116885000D01*
X104627000Y-116885000D01*
X104933778Y-116829768D01*
X105223886Y-116715748D01*
X105486175Y-116547322D01*
X105710566Y-116330962D01*
X105888436Y-116074983D01*
X106012949Y-115789221D01*
X106040586Y-115672588D01*
X105920584Y-115427000D01*
X103827000Y-115427000D01*
X103573000Y-115427000D01*
X101479416Y-115427000D01*
X101359414Y-115672588D01*
X100902000Y-115672588D01*
X100902000Y-114927412D01*
X101359414Y-114927412D01*
X101479416Y-115173000D01*
X103573000Y-115173000D01*
X103573000Y-113715000D01*
X103827000Y-113715000D01*
X103827000Y-115173000D01*
X105920584Y-115173000D01*
X106040586Y-114927412D01*
X106012949Y-114810779D01*
X105888436Y-114525017D01*
X105710566Y-114269038D01*
X105486175Y-114052678D01*
X105223886Y-113884252D01*
X104933778Y-113770232D01*
X104627000Y-113715000D01*
X103827000Y-113715000D01*
X103573000Y-113715000D01*
X102773000Y-113715000D01*
X102466222Y-113770232D01*
X102176114Y-113884252D01*
X101913825Y-114052678D01*
X101689434Y-114269038D01*
X101511564Y-114525017D01*
X101387051Y-114810779D01*
X101359414Y-114927412D01*
X100902000Y-114927412D01*
X100902000Y-113481987D01*
X100983130Y-113383130D01*
X101081987Y-113302000D01*
X125118013Y-113302000D01*
X125216870Y-113383130D01*
G37*
%TD.AperFunction*%
%TD*%
M02*
